<svg width="183" height="157" viewBox="0 0 183 157" fill="none" xmlns="http://www.w3.org/2000/svg">
<path d="M126.813 146.064C130.734 148.332 135.459 148.892 139.663 147.207C146.192 144.589 152.443 141.313 158.319 137.424C165.791 132.406 171.761 126.761 176.232 120.742C180.967 114.367 177.905 105.785 171.031 101.811L58.6575 36.8362C54.8684 34.6453 50.3279 34.0494 46.2054 35.5196C38.0315 38.4345 30.3548 42.205 23.4691 46.8311C17.2821 50.9938 12.1228 55.5794 7.99268 60.4505C2.61632 66.7915 5.53141 75.9381 12.7284 80.0994L126.813 146.064Z" fill="#E0E0E0"/>
<path d="M32.3323 53.3381L39.6817 57.5813C39.7483 57.6197 39.8278 57.6456 39.8716 57.7087C39.8938 57.7405 39.9057 57.7784 39.9057 57.8172C39.9057 57.856 39.8938 57.8939 39.8716 57.9258C39.8278 57.9889 39.7483 58.0147 39.6817 58.0531L38.6689 58.637C38.5739 58.6857 38.4687 58.7111 38.3619 58.7111C38.2552 58.7111 38.15 58.6857 38.055 58.637L30.7056 54.3938C30.6391 54.3554 30.5596 54.3295 30.5157 54.2664C30.4935 54.2345 30.4816 54.1967 30.4816 54.1579C30.4816 54.1191 30.4935 54.0812 30.5157 54.0493C30.5596 53.9862 30.6391 53.9603 30.7057 53.922L31.7185 53.3381C31.8135 53.2894 31.9187 53.264 32.0254 53.264C32.1321 53.264 32.2373 53.2894 32.3323 53.3381Z" fill="#FAFAFA"/>
<path d="M49.6273 63.322L57.0807 67.6229C57.251 67.7219 57.251 67.8803 57.0807 67.9754L55.9679 68.6209C55.8729 68.6696 55.7677 68.6949 55.6609 68.6949C55.5542 68.6949 55.449 68.6696 55.354 68.6209L48.0007 64.3777C47.9341 64.3393 47.8546 64.3134 47.8107 64.2503C47.7886 64.2184 47.7767 64.1806 47.7767 64.1417C47.7767 64.1029 47.7886 64.0651 47.8107 64.0332C47.8546 63.9701 47.9341 63.9442 48.0007 63.9058L49.0135 63.322C49.1085 63.2733 49.2137 63.2479 49.3204 63.2479C49.4271 63.2479 49.5323 63.2733 49.6273 63.322Z" fill="#FAFAFA"/>
<path d="M66.926 73.302L74.3755 77.6069C74.5458 77.702 74.5458 77.8604 74.3755 77.9594L73.2626 78.601C73.1676 78.6497 73.0624 78.675 72.9557 78.675C72.8489 78.675 72.7437 78.6497 72.6487 78.601L65.2995 74.3579C65.2329 74.3194 65.1527 74.2948 65.1079 74.2322C65.0853 74.2006 65.0731 74.1627 65.0731 74.1238C65.0731 74.0849 65.0853 74.047 65.1079 74.0154C65.1527 73.9529 65.2328 73.9281 65.2994 73.8895L66.3122 73.302C66.4077 73.2552 66.5127 73.2308 66.6191 73.2308C66.7255 73.2308 66.8305 73.2552 66.926 73.302Z" fill="#FAFAFA"/>
<path d="M84.2249 83.286L91.5743 87.5292C91.6409 87.5676 91.7203 87.5935 91.7642 87.6566C91.7864 87.6885 91.7983 87.7263 91.7983 87.7651C91.7983 87.8039 91.7864 87.8418 91.7642 87.8737C91.7203 87.9368 91.6408 87.9627 91.5742 88.0011L90.5615 88.5849C90.4665 88.6336 90.3613 88.659 90.2545 88.659C90.1478 88.659 90.0426 88.6336 89.9476 88.5849L82.5943 84.3378C82.5277 84.2994 82.4482 84.2735 82.4043 84.2104C82.3822 84.1785 82.3703 84.1406 82.3703 84.1018C82.3703 84.063 82.3822 84.0251 82.4043 83.9933C82.4482 83.9302 82.5277 83.9044 82.5944 83.8661L83.611 83.282C83.7064 83.234 83.8117 83.2093 83.9185 83.21C84.0252 83.2107 84.1302 83.2367 84.2249 83.286Z" fill="#FAFAFA"/>
<path d="M101.52 93.2701L108.873 97.5133C108.94 97.5517 109.019 97.5776 109.063 97.6407C109.085 97.6726 109.097 97.7104 109.097 97.7492C109.097 97.788 109.085 97.8259 109.063 97.8578C109.019 97.9209 108.94 97.9467 108.873 97.985L107.856 98.569C107.761 98.6177 107.656 98.6431 107.549 98.6431C107.443 98.6431 107.337 98.6177 107.242 98.569L99.8931 94.3258C99.8265 94.2874 99.747 94.2615 99.7031 94.1984C99.681 94.1666 99.6691 94.1287 99.6691 94.0899C99.6691 94.0511 99.681 94.0132 99.7031 93.9813C99.747 93.9182 99.8265 93.8924 99.8931 93.854L100.906 93.2701C101.001 93.2214 101.106 93.196 101.213 93.196C101.32 93.196 101.425 93.2214 101.52 93.2701Z" fill="#FAFAFA"/>
<path d="M118.818 103.254L126.168 107.497C126.234 107.536 126.314 107.56 126.359 107.623C126.382 107.655 126.394 107.693 126.394 107.731C126.394 107.77 126.382 107.808 126.359 107.84C126.314 107.902 126.234 107.927 126.168 107.966L125.155 108.553C125.059 108.6 124.954 108.624 124.848 108.624C124.742 108.624 124.637 108.6 124.541 108.553L117.092 104.248C116.921 104.153 116.921 103.995 117.092 103.896L118.204 103.254C118.299 103.206 118.405 103.18 118.511 103.18C118.618 103.18 118.723 103.206 118.818 103.254Z" fill="#FAFAFA"/>
<path d="M136.118 113.234L143.467 117.489C143.534 117.528 143.613 117.554 143.657 117.617C143.679 117.649 143.691 117.687 143.691 117.725C143.691 117.764 143.679 117.802 143.657 117.834C143.613 117.897 143.534 117.923 143.467 117.961L142.454 118.545C142.359 118.594 142.254 118.619 142.147 118.619C142.041 118.619 141.935 118.594 141.84 118.545L134.387 114.244C134.217 114.145 134.217 113.987 134.387 113.892L135.504 113.246C135.598 113.198 135.703 113.171 135.809 113.169C135.916 113.167 136.021 113.189 136.118 113.234Z" fill="#FAFAFA"/>
<path d="M153.412 123.218L160.765 127.462C160.832 127.5 160.912 127.526 160.955 127.589C160.978 127.621 160.989 127.659 160.989 127.697C160.989 127.736 160.978 127.774 160.955 127.806C160.912 127.869 160.832 127.895 160.765 127.933L159.749 128.517C159.654 128.566 159.548 128.591 159.442 128.591C159.335 128.591 159.23 128.566 159.135 128.517L151.785 124.274C151.719 124.236 151.639 124.21 151.595 124.147C151.573 124.115 151.561 124.077 151.561 124.038C151.561 123.999 151.573 123.961 151.595 123.93C151.639 123.866 151.719 123.841 151.785 123.802L152.798 123.218C152.893 123.17 152.998 123.144 153.105 123.144C153.212 123.144 153.317 123.17 153.412 123.218Z" fill="#FAFAFA"/>
<path d="M105.639 151.797L116.156 145.725L125.166 150.928L114.654 157L105.639 151.797Z" fill="#E0E0E0"/>
<path d="M127.124 126.966L175.936 98.788V92.025L127.124 120.203V126.966Z" fill="#F5F5F5"/>
<path d="M125.822 119.449V126.216L127.125 126.965V120.202L125.822 119.449Z" fill="#074E9F"/>
<path opacity="0.2" d="M125.822 119.449V126.216L127.125 126.965V120.202L125.822 119.449Z" fill="black"/>
<path d="M175.937 92.0249L174.634 91.2715L125.822 119.449L127.125 120.202L175.937 92.0249Z" fill="#FAFAFA"/>
<path d="M131.68 116.072L132.979 116.821L136.888 114.565L135.585 113.816L131.68 116.072Z" fill="#074E9F"/>
<path d="M127.125 120.203L129.075 119.077L127.776 118.323L125.822 119.449L127.125 120.203Z" fill="#074E9F"/>
<path d="M139.489 111.561L140.792 112.314L144.697 110.058L143.394 109.305L139.489 111.561Z" fill="#074E9F"/>
<path d="M147.298 107.053L148.601 107.802L152.505 105.551L151.202 104.797L147.298 107.053Z" fill="#074E9F"/>
<path d="M155.112 102.542L156.41 103.295L160.315 101.039L159.016 100.29L155.112 102.542Z" fill="#074E9F"/>
<path d="M162.92 98.0344L164.223 98.7878L168.127 96.532L166.825 95.7786L162.92 98.0344Z" fill="#074E9F"/>
<path d="M170.729 93.5273L172.032 94.2763L175.937 92.0249L174.634 91.2715L170.729 93.5273Z" fill="#074E9F"/>
<g opacity="0.4">
<path d="M131.68 116.072L132.979 116.821L136.888 114.565L135.585 113.816L131.68 116.072Z" fill="white"/>
<path d="M127.125 120.203L129.075 119.077L127.776 118.323L125.822 119.449L127.125 120.203Z" fill="white"/>
<path d="M139.489 111.561L140.792 112.314L144.697 110.058L143.394 109.305L139.489 111.561Z" fill="white"/>
<path d="M147.298 107.053L148.601 107.802L152.505 105.551L151.202 104.797L147.298 107.053Z" fill="white"/>
<path d="M155.112 102.542L156.41 103.295L160.315 101.039L159.016 100.29L155.112 102.542Z" fill="white"/>
<path d="M162.92 98.0344L164.223 98.7878L168.127 96.532L166.825 95.7786L162.92 98.0344Z" fill="white"/>
<path d="M170.729 93.5273L172.032 94.2763L175.937 92.0249L174.634 91.2715L170.729 93.5273Z" fill="white"/>
</g>
<path d="M160.314 101.039L156.884 103.02L156.41 103.295L153.808 111.56L157.713 109.305L160.314 101.039Z" fill="#074E9F"/>
<path d="M144.697 110.058L140.792 112.314L138.191 120.579L142.095 118.323L144.697 110.058Z" fill="#074E9F"/>
<path d="M134.286 122.831L136.888 114.565L133.701 116.404L132.979 116.821L130.377 125.086L134.286 122.831Z" fill="#074E9F"/>
<path d="M152.506 105.551L148.708 107.74L148.601 107.802L146 116.068L149.904 113.816L152.506 105.551Z" fill="#074E9F"/>
<path d="M165.522 104.797L168.128 96.5321L165.22 98.2073L164.223 98.7879L161.617 107.053L165.522 104.797Z" fill="#074E9F"/>
<path d="M129.074 119.077L127.124 120.203V125.277L129.074 119.077Z" fill="#074E9F"/>
<path d="M175.29 92.3973L172.032 94.2764L169.426 102.542L173.335 100.29L175.937 92.025L175.29 92.3973Z" fill="#074E9F"/>
<path d="M118.664 128.096L127.124 123.207V120.203L118.664 125.086V128.096Z" fill="#37474F"/>
<path d="M127.124 120.202L125.821 119.449L117.361 124.337L118.664 125.086L127.124 120.202Z" fill="#455A64"/>
<path d="M106.951 149.887L116.062 144.626L123.871 149.138L114.759 154.398L106.951 149.887Z" fill="#455A64"/>
<path d="M106.951 149.887V151.389L114.759 155.901V154.399L106.951 149.887Z" fill="#263238"/>
<path d="M123.871 149.138V150.64L114.76 155.901V154.398L123.871 149.138Z" fill="#37474F"/>
<path d="M115.655 121.293C115.498 121.22 115.325 121.19 115.152 121.207C114.98 121.225 114.816 121.288 114.676 121.39L110.94 123.544C110.536 123.807 110.2 124.162 109.959 124.579C109.718 124.997 109.579 125.465 109.553 125.946V149.878L114.76 152.887L121.266 149.129V125.197C121.282 125.027 121.254 124.856 121.183 124.7C121.112 124.544 121.002 124.41 120.863 124.311L115.655 121.293Z" fill="#074E9F"/>
<path opacity="0.2" d="M115.154 127.582C114.903 127.994 114.763 128.464 114.746 128.947V152.878L109.539 149.869V125.937C109.556 125.455 109.696 124.985 109.947 124.572L115.154 127.582Z" fill="black"/>
<path d="M114.76 128.946C114.786 128.465 114.925 127.996 115.166 127.577C115.407 127.159 115.743 126.804 116.147 126.54L119.878 124.395C120.645 123.952 121.266 124.311 121.266 125.197V149.129L114.76 152.887V128.946Z" fill="#074E9F"/>
<path opacity="0.4" d="M120.845 124.284C120.689 124.216 120.519 124.189 120.35 124.207C120.181 124.225 120.02 124.286 119.883 124.386L116.147 126.54C115.731 126.794 115.389 127.151 115.154 127.577L109.96 124.572C110.193 124.149 110.53 123.792 110.939 123.535L114.675 121.381C114.815 121.279 114.979 121.216 115.152 121.198C115.324 121.181 115.498 121.211 115.655 121.284L120.845 124.284Z" fill="white"/>
<path d="M116.063 129.598L119.967 127.342V130.351L116.063 132.603V129.598Z" fill="#455A64"/>
<path d="M119.586 130.13L119.967 130.351V127.342L119.586 127.564V130.13Z" fill="#37474F"/>
<path d="M119.586 130.13V127.564L116.063 129.598V132.168L119.586 130.13Z" fill="#074E9F"/>
<path opacity="0.4" d="M119.586 130.13V127.564L116.063 129.598V132.168L119.586 130.13Z" fill="black"/>
<path d="M116.063 134.265C116.034 134.265 116.006 134.258 115.981 134.244C115.956 134.23 115.935 134.21 115.921 134.185C115.91 134.167 115.903 134.146 115.9 134.125C115.898 134.104 115.899 134.083 115.905 134.063C115.911 134.042 115.921 134.024 115.934 134.007C115.948 133.991 115.964 133.977 115.983 133.968L119.887 131.712C119.925 131.691 119.968 131.685 120.01 131.696C120.03 131.702 120.049 131.711 120.066 131.724C120.082 131.737 120.096 131.753 120.107 131.772C120.117 131.79 120.124 131.81 120.127 131.831C120.129 131.852 120.128 131.873 120.122 131.894C120.117 131.914 120.107 131.933 120.094 131.95C120.081 131.967 120.065 131.981 120.047 131.991L116.143 134.247C116.118 134.259 116.09 134.265 116.063 134.265Z" fill="#455A64"/>
<path d="M116.063 135.771C116.034 135.771 116.005 135.763 115.981 135.748C115.956 135.734 115.935 135.713 115.921 135.687C115.91 135.669 115.903 135.649 115.9 135.628C115.898 135.607 115.899 135.586 115.905 135.565C115.911 135.545 115.921 135.526 115.934 135.51C115.948 135.493 115.964 135.48 115.983 135.47L119.887 133.214C119.925 133.193 119.968 133.188 120.01 133.199C120.03 133.204 120.049 133.214 120.066 133.227C120.082 133.24 120.096 133.256 120.107 133.274C120.117 133.292 120.124 133.313 120.127 133.334C120.129 133.355 120.128 133.376 120.122 133.396C120.117 133.417 120.107 133.436 120.094 133.452C120.081 133.469 120.065 133.483 120.047 133.494L116.143 135.749C116.118 135.763 116.091 135.77 116.063 135.771Z" fill="#455A64"/>
<path d="M116.063 137.274C116.034 137.273 116.006 137.266 115.982 137.252C115.957 137.238 115.936 137.218 115.921 137.194C115.91 137.175 115.903 137.155 115.9 137.134C115.897 137.112 115.899 137.091 115.905 137.07C115.911 137.049 115.921 137.03 115.934 137.013C115.947 136.996 115.964 136.982 115.983 136.972L119.887 134.721C119.905 134.71 119.925 134.703 119.946 134.7C119.967 134.697 119.988 134.698 120.008 134.703C120.029 134.709 120.048 134.718 120.064 134.731C120.081 134.744 120.095 134.76 120.105 134.779C120.126 134.815 120.131 134.858 120.121 134.899C120.11 134.94 120.083 134.974 120.047 134.996L116.143 137.247C116.118 137.262 116.091 137.271 116.063 137.274Z" fill="#455A64"/>
<path d="M55.3915 48.2079L18.0924 69.6314C17.3049 70.0857 17.3049 70.819 18.0924 71.2702L104.633 121.026C105.563 121.502 106.629 121.644 107.651 121.427C124.077 116.953 136.911 109.329 145.139 100.032C145.28 99.8842 145.384 99.7056 145.444 99.5106C145.503 99.3155 145.516 99.1094 145.481 98.9086C145.446 98.7078 145.365 98.5179 145.243 98.3539C145.121 98.1899 144.963 98.0565 144.78 97.9641L58.2551 48.2079C57.8118 47.9829 57.3211 47.8656 56.8233 47.8656C56.3256 47.8656 55.8349 47.9829 55.3915 48.2079Z" fill="#EBEBEB"/>
<path d="M42.5321 71.2514C42.5564 72.2337 42.3707 73.2099 41.9871 74.1154C41.6994 74.7881 41.2098 75.3561 40.5853 75.7416L40.538 75.7698L37.0286 77.7815L35.6047 74.9614L35.5071 74.7734C34.7062 74.1519 33.9913 73.4281 33.3806 72.6207C33.2231 72.4233 33.0656 72.2196 32.9333 72.0097C32.0585 70.7463 31.377 69.3609 30.9108 67.8986C30.5484 66.7929 30.3427 65.6422 30.2997 64.48L30.2745 64.433L29.9153 63.7248L29.1498 62.2678L28.8348 61.6411L31.963 59.8393L32.1741 59.7171L32.2623 59.667C32.7424 59.3963 33.2856 59.2559 33.8374 59.2597C34.7422 59.29 35.6231 59.5557 36.3923 60.0305C39.7883 61.9952 42.5321 67.0118 42.5321 71.2514Z" fill="#263238"/>
<path d="M26.7242 66.2602C26.7242 69.917 28.7655 74.1503 31.4968 76.491C31.9138 76.8497 32.363 77.1696 32.8388 77.4467C36.2254 79.3957 38.9724 77.5313 38.9692 73.2886C38.9692 70.0862 37.3941 66.4357 35.1889 64.0073C35.1889 64.0073 35.1889 64.0073 35.17 63.9885C34.4991 63.2415 33.7172 62.6011 32.8514 62.0896C29.4523 60.1594 26.7242 62.0206 26.7242 66.2602Z" fill="#37474F"/>
<path d="M32.836 64.6621C30.6844 63.4244 28.936 64.7123 28.936 67.5418C28.936 70.3713 30.6844 73.6646 32.836 74.9023C34.9876 76.14 36.7392 74.849 36.7392 72.0226C36.7392 69.1963 34.9908 65.8999 32.836 64.6621Z" fill="#455A64"/>
<path d="M26.7242 66.2601C26.7242 69.9169 28.7655 74.1502 31.4968 76.4909C29.5999 74.354 28.2644 71.7833 27.6094 69.0082C27.0896 66.5641 27.2944 63.0546 29.3956 62.1678C31.4968 61.2811 34.2911 63.1486 35.17 64.0009C34.4991 63.2539 33.7172 62.6136 32.8514 62.102C29.4523 60.1593 26.7242 62.0206 26.7242 66.2601Z" fill="#455A64"/>
<path d="M32.8356 67.125C31.7172 66.4827 30.8131 67.1501 30.8131 68.6197C30.8131 70.0893 31.7172 71.797 32.8356 72.4394C33.9539 73.0817 34.8612 72.4112 34.8612 70.9447C34.8612 69.4783 33.9697 67.7674 32.8356 67.125Z" fill="#E0E0E0"/>
<path d="M32.1899 67.0967C32.0513 67.0162 31.9017 66.956 31.7458 66.9181C31.185 67.0685 30.8007 67.6795 30.8007 68.6196C30.8367 69.7339 31.2408 70.8054 31.9505 71.6684C32.0268 71.7277 32.1068 71.7821 32.1899 71.8313C33.1854 72.4016 33.9887 71.8094 33.9887 70.5028C33.9887 69.1961 33.1854 67.6701 32.1899 67.0967Z" fill="#F5F5F5"/>
<path d="M28.5612 57.6495V59.1285L72.3215 84.2588V82.7798L28.5612 57.6495Z" fill="#455A64"/>
<path d="M42.0661 66.8867L39.675 65.5111V73.5923C39.675 74.0278 39.99 74.2033 40.3586 73.984L42.2488 72.9029L42.0692 72.7964L42.0661 66.8867Z" fill="#76A0FF"/>
<path opacity="0.7" d="M42.0661 66.8867L39.675 65.5111V73.5923C39.675 74.0278 39.99 74.2033 40.3586 73.984L42.2488 72.9029L42.0692 72.7964L42.0661 66.8867Z" fill="white"/>
<path d="M42.0663 66.8867V71.3205L53.0135 77.6062V73.1724L42.0663 66.8867Z" fill="#37474F"/>
<path d="M53.013 77.6063L42.0658 71.3206L41.4294 71.6966L53.013 78.3395V77.6063Z" fill="#263238"/>
<path d="M41.4325 72.4362V71.6998L53.0128 78.3396V79.0854L41.4325 72.4362Z" fill="#455A64"/>
<path d="M53.0133 71.6935V80.5643L62.023 85.7376V76.8668L53.0133 71.6935Z" fill="#37474F"/>
<path d="M62.0235 76.8667V85.7375L71.0332 90.9109V82.0432L62.0235 76.8667Z" fill="#37474F"/>
<path d="M71.0329 90.9109L73.6067 89.4319V82.04L72.3214 82.7795L71.0329 82.0432V90.9109Z" fill="#263238"/>
<path d="M61.6985 85.5498V76.6821L62.3411 77.0519V85.9196L61.6985 85.5498Z" fill="#263238"/>
<path d="M66.2034 82.225V80.746L66.8461 81.1157L66.8492 82.5947L66.2034 82.225Z" fill="#E0E0E0"/>
<path d="M57.1937 77.0546V75.5756L57.8364 75.9422L57.8395 77.4243L57.1937 77.0546Z" fill="#E0E0E0"/>
<path opacity="0.2" d="M52.355 71.3141V77.2301L51.7281 77.6029V78.3456L53.0134 79.0851V71.6932L52.355 71.3141Z" fill="black"/>
<path d="M25.9874 56.1734L72.3215 82.7795L72.3246 79.8341L25.9874 53.2279V56.1734Z" fill="#76A0FF"/>
<g opacity="0.6">
<path d="M25.9874 56.1734L72.3215 82.7795L72.3246 79.8341L25.9874 53.2279V56.1734Z" fill="white"/>
</g>
<path d="M72.3211 82.7799L73.6064 82.0404V79.0856L72.3211 79.8251V82.7799Z" fill="#76A0FF"/>
<g opacity="0.5">
<path d="M72.3211 82.7799L73.6064 82.0404V79.0856L72.3211 79.8251V82.7799Z" fill="white"/>
</g>
<g opacity="0.1">
<path d="M72.3211 82.7799L73.6064 82.0404V79.0856L72.3211 79.8251V82.7799Z" fill="black"/>
</g>
<path d="M58.1641 34.7371L25.9873 53.2276L72.3214 79.8244L104.498 61.3464L58.1641 34.7371Z" fill="#76A0FF"/>
<g opacity="0.8">
<path d="M58.1641 34.7371L25.9873 53.2276L72.3214 79.8244L104.498 61.3464L58.1641 34.7371Z" fill="white"/>
</g>
<path d="M29.846 16.999L71.0325 40.6503L100.636 23.6513L59.449 0L29.846 16.999Z" fill="#E4E7EC"/>
<path d="M71.0325 77.6063V40.6503L29.846 16.999V53.9549L71.0325 77.6063Z" fill="#D0D5DD"/>
<path d="M71.0328 77.6061L100.636 60.6071V23.6511L71.0328 40.6501V77.6061Z" fill="#98A2B3"/>
<path d="M59.143 66.26C58.9102 66.0977 58.7196 65.8826 58.587 65.6325C58.4544 65.3824 58.3837 65.1044 58.3806 64.8217V62.6283L59.9305 63.5339L60.0313 63.5151V63.6623V65.6302C60.0424 65.7591 60.0192 65.8887 59.9639 66.0059C59.9086 66.1231 59.8232 66.2237 59.7163 66.2976C59.642 66.3383 59.5586 66.3599 59.4737 66.3602C59.3568 66.3548 59.2431 66.3203 59.143 66.26ZM59.3162 63.8911L59.2028 64.6619H58.6295V64.8217C58.6338 65.0602 58.6928 65.2945 58.802 65.5068C58.9112 65.7191 59.0677 65.9038 59.2595 66.0469C59.3074 66.0809 59.3634 66.1019 59.4219 66.108C59.4804 66.114 59.5395 66.1048 59.5935 66.0814C59.6596 66.0276 59.7108 65.9579 59.7422 65.879C59.7736 65.8 59.7842 65.7143 59.773 65.6302V63.8065L59.3162 63.8911ZM59.0957 63.678L59.5525 63.5965L58.6295 63.0545V64.4144H58.9886L59.0957 63.678Z" fill="#F6F7F9"/>
<path d="M59.2065 67.9301C59.2229 67.9301 59.2392 67.9268 59.2543 67.9205C59.2694 67.9141 59.2831 67.9049 59.2946 67.8932C59.306 67.8815 59.315 67.8676 59.321 67.8525C59.327 67.8373 59.3298 67.821 59.3294 67.8047V66.1534C59.3294 66.121 59.3165 66.0899 59.2934 66.067C59.2704 66.0441 59.2391 66.0312 59.2065 66.0312C59.174 66.0312 59.1427 66.0441 59.1197 66.067C59.0966 66.0899 59.0837 66.121 59.0837 66.1534V67.8047C59.0833 67.821 59.0861 67.8373 59.0921 67.8525C59.0981 67.8676 59.1071 67.8815 59.1185 67.8932C59.13 67.9049 59.1437 67.9141 59.1588 67.9205C59.1739 67.9268 59.1901 67.9301 59.2065 67.9301Z" fill="#F6F7F9"/>
<path d="M59.9275 68.3436C59.9494 68.3439 59.971 68.3383 59.9899 68.3272C60.0088 68.3162 60.0243 68.3002 60.0347 68.281C60.0431 68.267 60.0487 68.2515 60.0511 68.2354C60.0534 68.2193 60.0525 68.2029 60.0484 68.1871C60.0443 68.1714 60.0371 68.1566 60.0271 68.1436C60.0172 68.1307 60.0048 68.1199 59.9905 68.1118L58.5414 67.2814C58.5278 67.2726 58.5124 67.2667 58.4964 67.2642C58.4803 67.2616 58.4639 67.2624 58.4482 67.2665C58.4324 67.2707 58.4178 67.278 58.4051 67.2881C58.3924 67.2983 58.3819 67.3109 58.3745 67.3253C58.366 67.3392 58.3604 67.3547 58.3581 67.3708C58.3557 67.3869 58.3566 67.4033 58.3607 67.4191C58.3648 67.4349 58.372 67.4497 58.382 67.4626C58.3919 67.4755 58.4044 67.4864 58.4186 67.4945L59.8645 68.3248C59.8838 68.3359 59.9053 68.3424 59.9275 68.3436Z" fill="#F6F7F9"/>
<path d="M64.26 70.8976C64.3075 70.8989 64.3544 70.8869 64.3954 70.8631C64.4457 70.8323 64.4862 70.788 64.5124 70.7354C64.5386 70.6828 64.5493 70.6239 64.5435 70.5655V70.227C64.5388 70.1976 64.5237 70.1708 64.5008 70.1514C64.478 70.1321 64.449 70.1215 64.4191 70.1215C64.3891 70.1215 64.3601 70.1321 64.3373 70.1514C64.3145 70.1708 64.2994 70.1976 64.2946 70.227V70.5655C64.2946 70.6156 64.2946 70.6438 64.2694 70.6501C64.2413 70.6534 64.213 70.6455 64.1907 70.6281C64.1136 70.5567 64.053 70.4697 64.0127 70.3729C63.9725 70.2761 63.9537 70.1719 63.9576 70.0672V67.8738C63.958 67.8575 63.9551 67.8413 63.9491 67.8261C63.9431 67.8109 63.9341 67.797 63.9227 67.7854C63.9112 67.7737 63.8976 67.7644 63.8824 67.7581C63.8673 67.7517 63.8511 67.7485 63.8347 67.7485C63.8013 67.7485 63.7692 67.7617 63.7456 67.7852C63.722 67.8087 63.7087 67.8406 63.7087 67.8738V70.0672C63.7023 70.2147 63.7308 70.3617 63.7921 70.4961C63.8534 70.6306 63.9457 70.7488 64.0615 70.8412C64.1217 70.8767 64.19 70.8961 64.26 70.8976Z" fill="#F6F7F9"/>
<path d="M62.262 67.0779V67.0058C62.2241 66.794 62.2527 66.5758 62.3439 66.3808C62.4352 66.1858 62.5846 66.0234 62.7719 65.9159C62.9592 65.8084 63.1752 65.7609 63.3906 65.7798C63.606 65.7988 63.8103 65.8833 63.9757 66.0219C64.4392 66.322 64.8248 66.7268 65.1013 67.2033C65.3777 67.6797 65.5371 68.2143 65.5666 68.7637V68.9767L62.262 67.0779ZM62.892 66.1378C62.7647 66.2287 62.6626 66.3503 62.5954 66.4911C62.5282 66.632 62.498 66.7875 62.5077 66.9431L65.3051 68.5506C65.2435 68.0847 65.0815 67.6375 64.8304 67.2395C64.5792 66.8415 64.2447 66.5021 63.8497 66.2444C63.6601 66.127 63.4428 66.0611 63.2197 66.0532C63.1069 66.051 62.9954 66.0769 62.8952 66.1284L62.892 66.1378Z" fill="#F6F7F9"/>
<path d="M69.2528 73.6739C69.2692 73.6739 69.2854 73.6706 69.3005 73.6643C69.3156 73.6579 69.3293 73.6487 69.3408 73.637C69.3522 73.6253 69.3612 73.6114 69.3672 73.5963C69.3732 73.5811 69.376 73.5648 69.3756 73.5485V69.3403C69.376 69.324 69.3732 69.3078 69.3672 69.2926C69.3612 69.2774 69.3522 69.2635 69.3408 69.2519C69.3293 69.2402 69.3156 69.2309 69.3005 69.2246C69.2854 69.2182 69.2692 69.215 69.2528 69.215C69.2193 69.215 69.1873 69.2282 69.1637 69.2517C69.14 69.2752 69.1268 69.3071 69.1268 69.3403V73.5485C69.1268 73.5818 69.14 73.6137 69.1637 73.6372C69.1873 73.6607 69.2193 73.6739 69.2528 73.6739Z" fill="#F6F7F9"/>
<path d="M69.621 70.299C69.6377 70.3023 69.6548 70.3023 69.6714 70.299C69.6864 70.2925 69.7 70.2832 69.7113 70.2714C69.7226 70.2597 69.7315 70.2459 69.7373 70.2307C69.7432 70.2155 69.746 70.1993 69.7455 70.1831C69.745 70.1668 69.7412 70.1508 69.7344 70.136L69.2934 69.1177L68.7988 69.688C68.7775 69.7129 68.767 69.7452 68.7697 69.7778C68.7723 69.8105 68.7879 69.8407 68.813 69.8619C68.838 69.8831 68.8705 69.8935 68.9033 69.8908C68.9361 69.8882 68.9665 69.8727 68.9878 69.8478L69.2209 69.5783L69.5076 70.2332C69.5183 70.2537 69.5347 70.2708 69.5547 70.2824C69.5748 70.2941 69.5978 70.2998 69.621 70.299Z" fill="#F6F7F9"/>
<path d="M68.1091 73.022C68.142 73.0212 68.1733 73.0076 68.1962 72.9842C68.2192 72.9608 68.232 72.9294 68.232 72.8967V68.6884C68.2349 68.6705 68.2338 68.6522 68.2289 68.6348C68.2239 68.6173 68.2153 68.6011 68.2034 68.5873C68.1916 68.5735 68.1769 68.5625 68.1604 68.5549C68.1438 68.5473 68.1258 68.5433 68.1076 68.5433C68.0893 68.5433 68.0713 68.5473 68.0548 68.5549C68.0382 68.5625 68.0235 68.5735 68.0117 68.5873C67.9999 68.6011 67.9912 68.6173 67.9863 68.6348C67.9813 68.6522 67.9803 68.6705 67.9831 68.6884V72.8967C67.9831 72.9299 67.9964 72.9618 68.02 72.9853C68.0437 73.0088 68.0757 73.022 68.1091 73.022Z" fill="#F6F7F9"/>
<path d="M68.4712 69.6473C68.4879 69.6502 68.505 69.6502 68.5216 69.6473C68.5367 69.6408 68.5502 69.6314 68.5615 69.6197C68.5728 69.608 68.5817 69.5941 68.5876 69.579C68.5934 69.5638 68.5962 69.5476 68.5957 69.5313C68.5952 69.5151 68.5914 69.4991 68.5847 69.4843L68.1436 68.4659L67.649 69.0331C67.6319 69.0585 67.6247 69.0892 67.6287 69.1196C67.6328 69.1499 67.6479 69.1777 67.6711 69.1977C67.6944 69.2177 67.7241 69.2286 67.7549 69.2283C67.7856 69.228 67.8152 69.2165 67.838 69.196L68.0712 68.9266L68.3578 69.5815C68.3685 69.602 68.3849 69.619 68.405 69.6307C68.425 69.6423 68.448 69.6481 68.4712 69.6473Z" fill="#F6F7F9"/>
<path d="M43.1277 51.376V58.1536C43.1277 58.4137 42.9419 58.5202 42.7151 58.3886L32.0798 52.2784C31.9594 52.2014 31.8592 52.0971 31.7874 51.9739C31.7156 51.8508 31.6744 51.7124 31.6671 51.5702V44.7894C31.6671 44.5262 31.853 44.4228 32.0798 44.5513L42.7182 50.6741C42.8367 50.7513 42.9354 50.855 43.0065 50.9768C43.0775 51.0987 43.1191 51.2354 43.1277 51.376Z" fill="#F9FAFB"/>
<path d="M32.3255 45.5227L32.6689 45.7201V51.8805L32.3255 51.6831V45.5227Z" fill="#E4E7EC"/>
<path d="M33.7245 46.3248L34.3167 46.6726V52.833L33.7245 52.4883V46.3248Z" fill="#E4E7EC"/>
<path d="M35.1227 47.127L35.4661 47.3244V53.4879L35.1227 53.2905V47.127Z" fill="#E4E7EC"/>
<path d="M36.1784 47.7224L36.8652 48.1297V54.2901L36.1784 53.8859V47.7224Z" fill="#E4E7EC"/>
<path d="M37.9199 48.7346L38.2633 48.932V55.0923L37.9199 54.8949V48.7346Z" fill="#E4E7EC"/>
<path d="M38.9249 49.2986L39.6621 49.7342V55.8946L38.9249 55.4622V49.2986Z" fill="#E4E7EC"/>
<path d="M40.7179 50.3386L41.0613 50.536L41.0581 56.6995L40.7179 56.499V50.3386Z" fill="#E4E7EC"/>
<path d="M41.5147 50.79L41.6848 50.8903V57.0507L41.5147 56.9536V50.79Z" fill="#E4E7EC"/>
<path d="M40.078 50.0035L40.2512 50.1006V56.2641L40.078 56.1639V50.0035Z" fill="#E4E7EC"/>
<path d="M37.2618 48.3616L37.435 48.4619V54.6223L37.2618 54.5251V48.3616Z" fill="#E4E7EC"/>
<path d="M35.718 47.4812L35.8913 47.5815V53.7418L35.718 53.6447V47.4812Z" fill="#E4E7EC"/>
<path d="M34.6125 46.8732L34.7826 46.9735V53.1339L34.6093 53.0336L34.6125 46.8732Z" fill="#E4E7EC"/>
<path d="M33.1099 45.9646L33.2801 46.0649V52.2252L33.1099 52.1281V45.9646Z" fill="#E4E7EC"/>
<path d="M42.1162 51.1411L42.4564 51.3385V57.502L42.1131 57.3046L42.1162 51.1411Z" fill="#E4E7EC"/>
<path d="M132.951 54.8636L135.32 53.4943C135.4 53.437 135.493 53.4018 135.59 53.3924C135.688 53.3831 135.786 53.3998 135.875 53.4411C136.013 53.5225 136.294 53.6917 136.432 53.7544C136.513 53.81 136.577 53.8862 136.618 53.9749C136.659 54.0637 136.676 54.1617 136.666 54.2589V59.9179C136.651 60.1869 136.572 60.4486 136.437 60.6817C136.301 60.9148 136.112 61.1126 135.884 61.259L133.518 62.644C133.44 62.701 133.347 62.7362 133.25 62.7461C133.154 62.756 133.056 62.7403 132.967 62.7004C132.825 62.619 132.545 62.4466 132.403 62.3683C132.323 62.3121 132.26 62.2357 132.219 62.147C132.179 62.0584 132.163 61.9606 132.173 61.8638V56.2048C132.188 55.9361 132.265 55.6745 132.401 55.4414C132.536 55.2084 132.725 55.0104 132.951 54.8636Z" fill="#FAFAFA"/>
<path d="M132.17 56.2048V61.8638C132.159 61.9607 132.175 62.0586 132.215 62.1473C132.256 62.236 132.319 62.3123 132.4 62.3683C132.538 62.4435 132.749 62.5782 132.948 62.6816C132.874 62.6236 132.816 62.5482 132.779 62.4623C132.743 62.3764 132.728 62.2827 132.737 62.1897V56.5369C132.745 56.268 132.823 56.0057 132.963 55.7755L132.4 55.4434C132.258 55.6733 132.179 55.9355 132.17 56.2048Z" fill="#E0E0E0"/>
<path d="M135.885 61.275L133.519 62.6444C133.087 62.8919 132.741 62.6914 132.741 62.1994V56.5373C132.755 56.2686 132.833 56.0072 132.969 55.7741C133.104 55.5411 133.292 55.3431 133.519 55.1961L135.888 53.8268C136.319 53.5793 136.669 53.7798 136.669 54.2749V59.9339C136.654 60.2032 136.575 60.4651 136.439 60.6982C136.303 60.9313 136.113 61.129 135.885 61.275Z" fill="#F0F0F0"/>
<path d="M132.812 65.9779C132.778 65.9771 132.744 65.9675 132.714 65.9499C132.684 65.9324 132.66 65.9075 132.642 65.8776C132.629 65.8554 132.621 65.8309 132.618 65.8055C132.614 65.7801 132.616 65.7542 132.623 65.7295C132.629 65.7047 132.641 65.6815 132.657 65.6612C132.673 65.6409 132.692 65.624 132.715 65.6113L134.365 64.6713C134.395 64.6541 134.42 64.6295 134.437 64.5997C134.454 64.57 134.463 64.5363 134.463 64.5021V58.2947C134.46 58.2669 134.462 58.2387 134.47 58.2119C134.479 58.1851 134.492 58.1604 134.511 58.1393C134.53 58.1183 134.553 58.1015 134.578 58.0899C134.604 58.0784 134.632 58.0724 134.66 58.0724C134.688 58.0724 134.716 58.0784 134.742 58.0899C134.767 58.1015 134.79 58.1183 134.809 58.1393C134.828 58.1604 134.841 58.1851 134.85 58.2119C134.858 58.2387 134.86 58.2669 134.857 58.2947V64.4927C134.857 64.5961 134.829 64.6977 134.777 64.7873C134.725 64.8769 134.651 64.9514 134.561 65.0034L132.91 65.9434C132.881 65.9639 132.848 65.9759 132.812 65.9779Z" fill="#263238"/>
<path d="M83.6936 98.0646L90.3879 94.9876C90.3879 94.9876 89.8649 88.7206 85.4451 90.2216C81.0253 91.7225 83.6936 98.0646 83.6936 98.0646Z" fill="#76A0FF"/>
<g opacity="0.5">
<path d="M83.6936 98.0646L90.3879 94.9876C90.3879 94.9876 89.8649 88.7206 85.4451 90.2216C81.0253 91.7225 83.6936 98.0646 83.6936 98.0646Z" fill="black"/>
</g>
<path d="M87.3766 97.2815L85.9495 94.4363L89.377 92.4622C90.4702 91.8355 91.9193 91.9107 93.5133 92.8257C96.8999 94.7716 99.6437 99.7851 99.6437 104.028C99.6437 106.246 98.8908 107.816 97.6874 108.527L97.637 108.556L94.1245 110.574L92.6029 107.572C89.7078 105.385 87.4869 101.067 87.3766 97.2815Z" fill="#263238"/>
<path d="M83.8009 99.0327C83.8009 102.689 85.8422 106.923 88.5767 109.263C88.9952 109.624 89.4454 109.945 89.9218 110.225C93.3084 112.168 96.0554 110.307 96.0522 106.064C96.0522 102.862 94.4771 99.2113 92.2719 96.7829L92.253 96.7641C91.583 96.0162 90.8009 95.3757 89.9344 94.8652C86.5448 92.9319 83.8009 94.7932 83.8009 99.0327Z" fill="#37474F"/>
<path d="M89.931 97.4349C87.7762 96.1815 86.0309 97.485 86.0309 100.315C86.0309 103.144 87.7762 106.437 89.931 107.675C92.0857 108.913 93.831 107.622 93.831 104.795C93.831 101.969 92.0857 98.6726 89.931 97.4349Z" fill="#455A64"/>
<path d="M89.931 99.8977C88.8127 99.271 87.9086 99.9228 87.9086 101.392C87.9086 102.862 88.8127 104.57 89.931 105.212C91.0494 105.854 91.9567 105.184 91.9567 103.717C91.9567 102.251 91.0494 100.54 89.931 99.8977Z" fill="#E0E0E0"/>
<path d="M89.2849 99.8695C89.146 99.7895 88.9965 99.7294 88.8407 99.6909C88.28 99.8413 87.8956 100.452 87.8956 101.392C87.9313 102.5 88.3295 103.566 89.0297 104.429C89.1076 104.487 89.1886 104.542 89.2723 104.592C90.2678 105.162 91.0711 104.57 91.0711 103.263C91.0711 101.956 90.2804 100.44 89.2849 99.8695Z" fill="#F5F5F5"/>
<path d="M83.8009 99.0327C83.8009 102.689 85.8422 106.923 88.5767 109.263C86.6798 107.127 85.3443 104.556 84.6892 101.781C84.1695 99.3367 84.3742 95.8272 86.4754 94.9404C88.5767 94.0536 91.371 95.9212 92.2499 96.7735C91.5799 96.0256 90.7978 95.3851 89.9313 94.8746C86.5448 92.9319 83.8009 94.7931 83.8009 99.0327Z" fill="#455A64"/>
<path d="M107.472 111.711L101.407 108.226L100.61 107.769L99.0824 106.885L98.3578 106.465C98.3836 106.398 98.3944 106.325 98.3893 106.252C98.4144 106.142 98.4239 106.03 98.4177 105.917C98.4177 101.251 95.1257 95.5767 91.0429 93.2454C90.6598 93.0242 90.2607 92.8315 89.849 92.6688C89.6694 92.5999 89.4993 92.5404 89.3292 92.4902C86.1033 91.5189 83.6997 93.4679 83.6997 97.4599V98.0647L73.6188 92.2709V46.5632L86.1474 53.7701L97.0851 61.7824L102.044 85.769L105.89 91.3904L106.095 91.6881L108.445 95.1161L109.207 104.444L109.396 106.484L109.478 107.324L109.667 109.342L109.755 110.282C109.779 110.558 109.726 110.835 109.601 111.083C109.477 111.331 109.287 111.541 109.051 111.688C108.815 111.836 108.543 111.916 108.264 111.92C107.986 111.924 107.712 111.852 107.472 111.711Z" fill="#76A0FF"/>
<g opacity="0.15">
<path d="M107.472 111.711L101.407 108.226L100.61 107.769L99.0824 106.885L98.3578 106.465C98.3836 106.398 98.3944 106.325 98.3893 106.252C98.4144 106.142 98.4239 106.03 98.4177 105.917C98.4177 101.251 95.1257 95.5767 91.0429 93.2454C90.6598 93.0242 90.2607 92.8315 89.849 92.6688C89.6694 92.5999 89.4993 92.5404 89.3292 92.4902C86.1033 91.5189 83.6997 93.4679 83.6997 97.4599V98.0647L73.6188 92.2709V46.5632L86.1474 53.7701L97.0851 61.7824L102.044 85.769L105.89 91.3904L106.095 91.6881L108.445 95.1161L109.207 104.444L109.396 106.484L109.478 107.324L109.667 109.342L109.755 110.282C109.779 110.558 109.726 110.835 109.601 111.083C109.477 111.331 109.287 111.541 109.051 111.688C108.815 111.836 108.543 111.916 108.264 111.92C107.986 111.924 107.712 111.852 107.472 111.711Z" fill="black"/>
</g>
<path d="M91.0526 62.5218V77.3086C91.0526 77.8538 90.6714 78.0732 90.1988 77.8006L77.8687 70.7283C77.6191 70.5669 77.4114 70.349 77.2625 70.0925C77.1136 69.8361 77.0277 69.5482 77.0118 69.2525V53.6886C77.0118 53.1465 77.393 52.9272 77.8687 53.1966L85.2813 57.455C85.7538 57.7276 86.4941 58.207 86.932 58.5298L90.2555 60.9582C90.4902 61.1496 90.6822 61.3874 90.8195 61.6566C90.9567 61.9258 91.0361 62.2204 91.0526 62.5218Z" fill="#455A64"/>
<path d="M95.0155 80.5547C94.6001 80.2858 94.2544 79.9232 94.0064 79.4963C93.7584 79.0694 93.6152 78.5904 93.5884 78.0981V65.0222C93.5884 64.1166 93.9255 63.6341 94.3413 63.9443L95.0942 64.5052C95.6547 64.9711 96.0518 65.602 96.2283 66.3069L99.2652 82.0055C99.3881 82.6322 99.0415 82.8672 98.4965 82.5508L95.0155 80.5547Z" fill="#455A64"/>
<g opacity="0.15">
<path d="M91.6795 60.2532L86.6989 56.6435C86.3272 56.374 85.7003 55.9667 85.3034 55.7411L76.4669 50.6743C76.3706 50.6063 76.2576 50.5657 76.1399 50.5569C76.0223 50.5481 75.9044 50.5713 75.799 50.6241C75.7006 50.6892 75.6215 50.7794 75.57 50.8852C75.5185 50.991 75.4964 51.1086 75.506 51.2258V91.0959C75.519 91.3713 75.5982 91.6396 75.7369 91.8784C75.8755 92.1172 76.0697 92.3195 76.3031 92.4683L82.1027 95.796C82.2236 95.8717 82.3631 95.9128 82.5059 95.9151C82.5929 95.9165 82.679 95.8983 82.7579 95.8618C82.8646 95.8124 82.9551 95.7342 83.0194 95.6362C83.0899 95.5302 83.1371 95.4106 83.158 95.2853C83.3659 94.2324 84.0086 92.3461 85.9933 91.5533C87.0339 91.1732 88.1706 91.1402 89.2317 91.4593C89.7905 91.6065 90.3329 91.8091 90.851 92.0641C91.0778 92.1738 91.2857 92.2834 91.481 92.3774C91.5766 92.4462 91.6889 92.4882 91.8064 92.4992C91.9238 92.5102 92.042 92.4898 92.1489 92.4401C92.2143 92.4001 92.2694 92.3454 92.3095 92.2803C92.3877 92.1521 92.426 92.0039 92.4198 91.8542V61.6884C92.4057 61.4106 92.3324 61.139 92.2048 60.8916C92.0772 60.6442 91.8981 60.4266 91.6795 60.2532ZM91.9158 92.1769C91.838 92.1864 91.7593 92.1698 91.6921 92.1299L91.6385 92.1048C90.7987 91.6149 89.8866 91.2596 88.9356 91.052C87.9181 90.8142 86.8525 90.8818 85.8735 91.2463C83.9645 92.0108 83.2179 93.6966 82.9281 94.8435C82.8903 94.9782 82.8619 95.0973 82.8398 95.2163C82.8333 95.2863 82.8102 95.3537 82.7724 95.4131C82.7346 95.4725 82.6832 95.5221 82.6225 95.5579C82.5637 95.5781 82.5009 95.5837 82.4395 95.5745C82.378 95.5652 82.3197 95.5412 82.2697 95.5046L76.4669 92.18C76.2844 92.0597 76.1325 91.8988 76.0232 91.7101C75.9139 91.5214 75.8501 91.3101 75.8368 91.0927V51.2195C75.8305 51.161 75.8387 51.1019 75.8607 51.0472C75.8826 50.9926 75.9177 50.9442 75.9628 50.9061C75.9957 50.8887 76.0326 50.88 76.0699 50.8811C76.1529 50.8856 76.2332 50.9115 76.3031 50.9563L85.1395 56.0325C85.5302 56.255 86.1413 56.6592 86.5036 56.913L91.4873 60.5259C91.6625 60.6693 91.806 60.8471 91.909 61.0482C92.012 61.2493 92.0722 61.4694 92.0859 61.6946V91.8667C92.0956 91.9236 92.0909 91.9821 92.0722 92.0368C92.0535 92.0915 92.0214 92.1408 91.9788 92.18C91.962 92.1885 91.9439 92.1938 91.9252 92.1957L91.9158 92.1769Z" fill="black"/>
</g>
<path d="M141.453 91.0551C141.453 91.0551 136.882 97.3408 126.912 103.276C118.636 108.195 109.617 109.345 109.617 109.345L108.439 95.1129L140.275 76.826L141.453 91.0551Z" fill="#76A0FF"/>
<g opacity="0.3">
<path d="M141.453 91.0551C141.453 91.0551 136.882 97.3408 126.912 103.276C118.636 108.195 109.617 109.345 109.617 109.345L108.439 95.1129L140.275 76.826L141.453 91.0551Z" fill="black"/>
</g>
<path d="M140.275 76.82C140.275 76.82 135.704 83.1088 125.733 89.0405C117.458 93.96 108.439 95.11 108.439 95.11L102.056 85.7691L133.899 67.4854L140.275 76.82Z" fill="#76A0FF"/>
<path d="M142.024 88.9587C141.967 88.8991 141.917 88.9085 141.857 89.0088C141.857 89.0088 137.286 95.2945 127.312 101.229C119.027 106.136 110.014 107.296 110.014 107.296C106.145 107.647 101.407 103.583 101.407 103.583L102.059 103.109C102.059 103.109 106.552 106.494 108.836 106.494C110.805 106.494 117.842 105.604 127.391 100.227C136.939 94.8496 141.252 88.3477 141.252 88.3477C141.423 88.3746 141.583 88.4451 141.719 88.5521C141.854 88.6592 141.959 88.7992 142.024 88.9587Z" fill="#37474F"/>
<path d="M141.854 89.0088C141.854 89.0088 137.279 95.2945 127.309 101.229C119.036 106.149 110.014 107.299 110.014 107.299C106.145 107.65 101.407 103.592 101.407 103.592V109.019C101.407 109.019 106.133 113.093 110.014 112.729C110.014 112.729 119.036 111.576 127.309 106.66C137.279 100.731 141.854 94.439 141.854 94.439C142.654 93.0948 142.313 88.2035 141.854 89.0088Z" fill="#455A64"/>
<path d="M112.654 97.955C114.078 97.6197 115.366 98.5817 115.53 100.095C115.604 100.838 115.409 101.584 114.982 102.198C114.554 102.812 113.921 103.255 113.196 103.448C112.862 103.531 112.514 103.539 112.177 103.472C111.84 103.404 111.523 103.263 111.247 103.058C110.972 102.853 110.746 102.59 110.586 102.287C110.426 101.984 110.336 101.65 110.323 101.308C110.187 99.7912 111.23 98.3028 112.654 97.955Z" fill="white"/>
<path d="M137.988 83.5317C137.122 84.3902 136.568 86.2296 136.747 87.6428C136.927 89.056 137.74 89.5009 138.559 88.6361C139.378 87.7712 139.932 85.9319 139.8 84.525C139.668 83.1181 138.852 82.6731 137.988 83.5317Z" fill="white"/>
<path d="M117.966 96.1094C120.719 95.2471 123.362 94.0693 125.841 92.5999C126.235 92.3712 126.55 92.5498 126.55 93.001V93.5744C126.539 93.8218 126.468 94.0629 126.345 94.278C126.222 94.4932 126.049 94.6762 125.841 94.8121C123.362 96.2816 120.719 97.4593 117.966 98.3216C117.873 98.3562 117.773 98.3669 117.674 98.3528C117.576 98.3387 117.483 98.3001 117.404 98.2408C117.325 98.1814 117.262 98.1031 117.222 98.0132C117.181 97.9232 117.164 97.8246 117.172 97.7263V97.1528C117.182 96.9193 117.263 96.6943 117.405 96.5079C117.547 96.3214 117.742 96.1824 117.966 96.1094Z" fill="#37474F"/>
<path d="M135.093 86.7902V87.3637C135.065 87.8778 134.84 88.3617 134.462 88.7142C132.578 90.2834 130.609 91.7479 128.562 93.101C128.184 93.3486 127.872 93.1793 127.872 92.7281V92.161C127.889 91.9148 127.959 91.6752 128.078 91.4588C128.197 91.2423 128.363 91.0543 128.562 90.9076C130.608 89.5537 132.578 88.0893 134.462 86.5208C134.822 86.2105 135.093 86.339 135.093 86.7902Z" fill="#37474F"/>
<path d="M117.965 100.114C120.718 99.2526 123.361 98.0759 125.841 96.6075C126.235 96.3787 126.55 96.5542 126.55 97.0085V97.582C126.537 97.829 126.466 98.0695 126.343 98.2844C126.22 98.4994 126.048 98.6826 125.841 98.8197C123.36 100.287 120.718 101.463 117.965 102.326C117.872 102.361 117.772 102.373 117.673 102.359C117.575 102.345 117.482 102.307 117.402 102.247C117.323 102.188 117.26 102.109 117.22 102.019C117.179 101.928 117.163 101.829 117.171 101.731V101.157C117.183 100.924 117.264 100.7 117.406 100.513C117.548 100.327 117.743 100.188 117.965 100.114Z" fill="#37474F"/>
<path d="M135.093 90.8108V91.3842C135.065 91.8972 134.839 92.3798 134.462 92.7316C132.578 94.3008 130.609 95.7653 128.562 97.1184C128.184 97.3691 127.872 97.1999 127.872 96.7455V96.1721C127.889 95.9259 127.959 95.6863 128.078 95.4699C128.197 95.2535 128.363 95.0654 128.562 94.9187C130.607 93.5628 132.576 92.0984 134.462 90.5319C134.822 90.2279 135.093 90.3564 135.093 90.8108Z" fill="#37474F"/>
<g opacity="0.15">
<path d="M119.149 79.9909C114.915 82.2678 110.53 84.2569 106.025 85.9445C105.93 85.975 105.844 86.0274 105.774 86.0974C105.704 86.1674 105.651 86.2529 105.62 86.3471C105.589 86.4413 105.581 86.5413 105.597 86.6391C105.613 86.7369 105.651 86.8296 105.71 86.9096L105.732 86.9409C105.874 87.1344 106.066 87.2855 106.289 87.3777C106.511 87.47 106.754 87.4999 106.992 87.4642C108.926 87.0443 114.156 85.6907 120.655 82.2157C120.748 82.1677 120.83 82.1005 120.894 82.0184C120.959 81.9364 121.005 81.8414 121.029 81.7401C121.054 81.6387 121.056 81.5334 121.036 81.431C121.016 81.3287 120.974 81.2319 120.913 81.1472L120.324 80.2761C120.196 80.0953 120.006 79.9668 119.79 79.9144C119.574 79.862 119.347 79.8891 119.149 79.9909Z" fill="black"/>
</g>
<g opacity="0.15">
<path d="M132.746 70.6157C129.365 73.5126 125.741 76.1186 121.916 78.4055C121.824 78.4584 121.744 78.5298 121.682 78.615C121.619 78.7003 121.575 78.7976 121.552 78.9007C121.529 79.0039 121.528 79.1106 121.549 79.2141C121.57 79.3177 121.612 79.4158 121.673 79.5022L122.269 80.3795C122.396 80.5609 122.587 80.6882 122.804 80.7363C123.021 80.7845 123.248 80.75 123.441 80.6396C129.332 77.1082 132.482 73.9998 133.925 72.3077C134.068 72.1205 134.151 71.8942 134.161 71.659C134.172 71.4239 134.11 71.191 133.985 70.9917L133.824 70.7535C133.769 70.6659 133.695 70.5916 133.607 70.5358C133.52 70.4801 133.421 70.4443 133.318 70.4311C133.215 70.4179 133.11 70.4277 133.011 70.4596C132.913 70.4915 132.822 70.5448 132.746 70.6157Z" fill="black"/>
</g>
<path d="M133.899 67.4694C133.899 67.4694 128.638 72.7305 119.968 77.7503C111.299 82.7701 102.059 85.75 102.059 85.75L97.0818 61.7571L116.979 50.3357L126.13 45.084L128.922 43.4734L133.899 67.4694Z" fill="#455A64"/>
<path d="M128.922 43.4672L126.13 45.0747L116.979 50.3358L97.0818 61.7572L102.059 85.7501L102.399 85.6373L102.469 85.6153L102.815 85.4963L102.96 85.4555H102.992H103.023L103.259 85.3709L103.628 85.2425L103.993 85.1109L104.233 85.0231L104.548 84.9072L105.613 84.5061L105.852 84.4152C106.706 84.0862 107.673 83.7039 108.722 83.2684L109.755 82.8328L109.922 82.7608L110.111 82.6824C110.329 82.5822 110.555 82.4882 110.782 82.3879L110.978 82.3033L111.431 82.0996L111.951 81.8677C112.329 81.6985 112.713 81.5199 113.101 81.3382C113.488 81.1564 113.879 80.9716 114.273 80.7836C114.569 80.6394 114.865 80.4953 115.161 80.3449L115.879 79.9877L115.955 79.9501L116.689 79.5709L116.749 79.5396L117.395 79.2012L117.911 78.9254C118.331 78.7019 118.74 78.4763 119.137 78.2486L119.953 77.7848L120.696 77.3086C120.907 77.1863 121.115 77.0579 121.326 76.9325C121.405 76.8855 121.487 76.8385 121.563 76.7884C121.799 76.6474 122.038 76.5001 122.268 76.356L122.353 76.3027L122.69 76.0896C122.838 75.9956 122.98 75.9016 123.128 75.8108L123.547 75.535L123.963 75.2655C124.136 75.1527 124.31 75.0399 124.476 74.924C124.82 74.6921 125.154 74.4665 125.481 74.2378L125.548 74.1908L125.926 73.9307C126.423 73.5797 126.902 73.2351 127.356 72.9029L127.696 72.6491L128.011 72.4047L128.326 72.1603C128.54 72.0005 128.745 71.8469 128.956 71.6871L128.981 71.6683L129.237 71.4709L129.819 71.0072L130.188 70.7158C130.264 70.6531 130.336 70.5904 130.408 70.534C130.481 70.4776 130.553 70.4118 130.623 70.3585L130.834 70.1862C130.833 70.181 130.833 70.1757 130.834 70.1705L131.313 69.7883C131.902 69.2932 132.396 68.8482 132.787 68.5035C132.836 68.4531 132.889 68.406 132.944 68.3625L132.976 68.3312L133.14 68.1808C133.603 67.7578 133.855 67.5071 133.889 67.4726L128.922 43.4672ZM118.195 76.9952C118.196 77.0014 118.196 77.0078 118.195 77.014C118.188 77.0626 118.179 77.1107 118.167 77.1581V77.1989C118.151 77.2365 118.138 77.2772 118.122 77.3148C118.116 77.3321 118.109 77.3488 118.1 77.3649C118.084 77.4118 118.063 77.457 118.037 77.4997C117.953 77.6511 117.84 77.7843 117.703 77.8914C117.659 77.927 117.61 77.9575 117.559 77.9822C116.387 78.6089 115.215 79.2168 114.071 79.7714L113.469 80.066C112.989 80.2937 112.513 80.5151 112.042 80.7303L111.387 81.0436L110.266 81.5387C110.08 81.6233 109.897 81.7017 109.718 81.7769L109.185 82.0056C108.479 82.3189 107.805 82.5822 107.169 82.8391C106.832 82.977 106.501 83.1054 106.186 83.2308L105.723 83.4094C104.964 83.7008 104.296 83.9515 103.732 84.1552C103.55 84.2288 103.347 84.2348 103.161 84.1721C102.975 84.1094 102.817 83.9822 102.718 83.8136C102.669 83.7251 102.634 83.6301 102.614 83.5316L99.5516 68.3594C99.5075 68.0824 99.5453 67.7986 99.6605 67.5427C99.7758 67.2867 99.9634 67.0697 100.201 66.918L113.117 59.5011C113.214 59.4352 113.326 59.3948 113.443 59.3837C113.561 59.3727 113.679 59.3914 113.786 59.438C113.894 59.4846 113.989 59.5577 114.06 59.6504C114.132 59.7431 114.179 59.8523 114.197 59.968L117.256 72.671L118.182 76.5189L118.198 76.5816V76.6286C118.201 76.6462 118.201 76.6642 118.198 76.6819C118.2 76.6996 118.2 76.7174 118.198 76.7351C118.201 76.7727 118.201 76.8104 118.198 76.8479C118.201 76.897 118.2 76.9463 118.195 76.9952ZM129.574 69.9512L129.347 70.1423C128.594 70.7471 127.737 71.3957 126.795 72.107C126.48 72.3452 126.143 72.5833 125.8 72.8277L125.431 73.094C124.93 73.4513 124.41 73.8085 123.856 74.1751L123.32 74.5323C123.141 74.6545 122.955 74.7736 122.769 74.8927C122.583 75.0117 122.394 75.1402 122.205 75.2593C121.528 75.6948 120.825 76.1304 120.101 76.5597C120.006 76.6269 119.895 76.6687 119.778 76.681C119.662 76.6932 119.545 76.6755 119.438 76.6295C119.33 76.5836 119.237 76.5109 119.166 76.4186C119.095 76.3262 119.049 76.2172 119.033 76.1022L119.011 76.0082L118.081 72.1728L115.051 59.5011C114.998 59.2253 115.03 58.9399 115.142 58.6822C115.254 58.4245 115.442 58.2065 115.681 58.0566L118.129 56.6559L128.093 50.9217L128.537 50.671L128.575 50.6522C128.67 50.5939 128.778 50.5605 128.89 50.5551C129.001 50.5496 129.113 50.5724 129.213 50.6212C129.313 50.67 129.399 50.7432 129.464 50.8341C129.528 50.9251 129.568 51.0306 129.58 51.1411L132.626 66.1816C132.696 66.6443 132.591 67.1161 132.333 67.5071C132.299 67.5604 132.261 67.6136 132.223 67.6606C132.186 67.7036 132.146 67.7445 132.103 67.7828L131.943 67.927C131.87 67.9959 131.795 68.0617 131.719 68.1275L131.038 68.7166C130.796 68.9265 130.528 69.1522 130.245 69.3872L129.649 69.876L129.577 69.9324L129.574 69.9512Z" fill="#76A0FF"/>
<g opacity="0.3">
<path d="M128.922 43.4672L126.13 45.0747L116.979 50.3358L97.0818 61.7572L102.059 85.7501L102.399 85.6373L102.469 85.6153L102.815 85.4963L102.96 85.4555H102.992H103.023L103.259 85.3709L103.628 85.2425L103.993 85.1109L104.233 85.0231L104.548 84.9072L105.613 84.5061L105.852 84.4152C106.706 84.0862 107.673 83.7039 108.722 83.2684L109.755 82.8328L109.922 82.7608L110.111 82.6824C110.329 82.5822 110.555 82.4882 110.782 82.3879L110.978 82.3033L111.431 82.0996L111.951 81.8677C112.329 81.6985 112.713 81.5199 113.101 81.3382C113.488 81.1564 113.879 80.9716 114.273 80.7836C114.569 80.6394 114.865 80.4953 115.161 80.3449L115.879 79.9877L115.955 79.9501L116.689 79.5709L116.749 79.5396L117.395 79.2012L117.911 78.9254C118.331 78.7019 118.74 78.4763 119.137 78.2486L119.953 77.7848L120.696 77.3086C120.907 77.1863 121.115 77.0579 121.326 76.9325C121.405 76.8855 121.487 76.8385 121.563 76.7884C121.799 76.6474 122.038 76.5001 122.268 76.356L122.353 76.3027L122.69 76.0896C122.838 75.9956 122.98 75.9016 123.128 75.8108L123.547 75.535L123.963 75.2655C124.136 75.1527 124.31 75.0399 124.476 74.924C124.82 74.6921 125.154 74.4665 125.481 74.2378L125.548 74.1908L125.926 73.9307C126.423 73.5797 126.902 73.2351 127.356 72.9029L127.696 72.6491L128.011 72.4047L128.326 72.1603C128.54 72.0005 128.745 71.8469 128.956 71.6871L128.981 71.6683L129.237 71.4709L129.819 71.0072L130.188 70.7158C130.264 70.6531 130.336 70.5904 130.408 70.534C130.481 70.4776 130.553 70.4118 130.623 70.3585L130.834 70.1862C130.833 70.181 130.833 70.1757 130.834 70.1705L131.313 69.7883C131.902 69.2932 132.396 68.8482 132.787 68.5035C132.836 68.4531 132.889 68.406 132.944 68.3625L132.976 68.3312L133.14 68.1808C133.603 67.7578 133.855 67.5071 133.889 67.4726L128.922 43.4672ZM118.195 76.9952C118.196 77.0014 118.196 77.0078 118.195 77.014C118.188 77.0626 118.179 77.1107 118.167 77.1581V77.1989C118.151 77.2365 118.138 77.2772 118.122 77.3148C118.116 77.3321 118.109 77.3488 118.1 77.3649C118.084 77.4118 118.063 77.457 118.037 77.4997C117.953 77.6511 117.84 77.7843 117.703 77.8914C117.659 77.927 117.61 77.9575 117.559 77.9822C116.387 78.6089 115.215 79.2168 114.071 79.7714L113.469 80.066C112.989 80.2937 112.513 80.5151 112.042 80.7303L111.387 81.0436L110.266 81.5387C110.08 81.6233 109.897 81.7017 109.718 81.7769L109.185 82.0056C108.479 82.3189 107.805 82.5822 107.169 82.8391C106.832 82.977 106.501 83.1054 106.186 83.2308L105.723 83.4094C104.964 83.7008 104.296 83.9515 103.732 84.1552C103.55 84.2288 103.347 84.2348 103.161 84.1721C102.975 84.1094 102.817 83.9822 102.718 83.8136C102.669 83.7251 102.634 83.6301 102.614 83.5316L99.5516 68.3594C99.5075 68.0824 99.5453 67.7986 99.6605 67.5427C99.7758 67.2867 99.9634 67.0697 100.201 66.918L113.117 59.5011C113.214 59.4352 113.326 59.3948 113.443 59.3837C113.561 59.3727 113.679 59.3914 113.786 59.438C113.894 59.4846 113.989 59.5577 114.06 59.6504C114.132 59.7431 114.179 59.8523 114.197 59.968L117.256 72.671L118.182 76.5189L118.198 76.5816V76.6286C118.201 76.6462 118.201 76.6642 118.198 76.6819C118.2 76.6996 118.2 76.7174 118.198 76.7351C118.201 76.7727 118.201 76.8104 118.198 76.8479C118.201 76.897 118.2 76.9463 118.195 76.9952ZM129.574 69.9512L129.347 70.1423C128.594 70.7471 127.737 71.3957 126.795 72.107C126.48 72.3452 126.143 72.5833 125.8 72.8277L125.431 73.094C124.93 73.4513 124.41 73.8085 123.856 74.1751L123.32 74.5323C123.141 74.6545 122.955 74.7736 122.769 74.8927C122.583 75.0117 122.394 75.1402 122.205 75.2593C121.528 75.6948 120.825 76.1304 120.101 76.5597C120.006 76.6269 119.895 76.6687 119.778 76.681C119.662 76.6932 119.545 76.6755 119.438 76.6295C119.33 76.5836 119.237 76.5109 119.166 76.4186C119.095 76.3262 119.049 76.2172 119.033 76.1022L119.011 76.0082L118.081 72.1728L115.051 59.5011C114.998 59.2253 115.03 58.9399 115.142 58.6822C115.254 58.4245 115.442 58.2065 115.681 58.0566L118.129 56.6559L128.093 50.9217L128.537 50.671L128.575 50.6522C128.67 50.5939 128.778 50.5605 128.89 50.5551C129.001 50.5496 129.113 50.5724 129.213 50.6212C129.313 50.67 129.399 50.7432 129.464 50.8341C129.528 50.9251 129.568 51.0306 129.58 51.1411L132.626 66.1816C132.696 66.6443 132.591 67.1161 132.333 67.5071C132.299 67.5604 132.261 67.6136 132.223 67.6606C132.186 67.7036 132.146 67.7445 132.103 67.7828L131.943 67.927C131.87 67.9959 131.795 68.0617 131.719 68.1275L131.038 68.7166C130.796 68.9265 130.528 69.1522 130.245 69.3872L129.649 69.876L129.577 69.9324L129.574 69.9512Z" fill="black"/>
</g>
<path d="M99.7186 65.6396L128.446 49.1357C128.631 49.018 128.778 48.8493 128.868 48.6501C128.959 48.451 128.99 48.2299 128.956 48.0139L128.433 45.435C128.424 45.346 128.392 45.261 128.339 45.1884C128.286 45.1158 128.216 45.0582 128.134 45.0214C128.052 44.9846 127.961 44.9699 127.872 44.9787C127.782 44.9875 127.697 45.0195 127.624 45.0716L98.8995 61.5755C98.7135 61.6931 98.5661 61.8623 98.4754 62.0621C98.3848 62.262 98.3548 62.4838 98.3892 62.7004L98.909 65.2761C98.9181 65.3651 98.9506 65.4501 99.0032 65.5227C99.0558 65.5953 99.1266 65.6529 99.2086 65.6897C99.2906 65.7265 99.3808 65.7413 99.4703 65.7325C99.5598 65.7237 99.6455 65.6916 99.7186 65.6396Z" fill="#455A64"/>
<path d="M118.176 76.5691C118.232 76.8406 118.201 77.1224 118.088 77.3756C117.975 77.6288 117.786 77.8409 117.546 77.9823C113.09 80.3615 108.468 82.4202 103.717 84.1426C103.602 84.1884 103.479 84.208 103.356 84.2C103.233 84.192 103.113 84.1566 103.006 84.0965C102.899 84.0363 102.806 83.9529 102.736 83.8524C102.665 83.7519 102.618 83.6369 102.598 83.516L102.397 82.5164C105.188 80.4984 111.967 75.6823 117.171 72.693C117.192 72.6793 117.213 72.6668 117.234 72.6554L118.176 76.5691Z" fill="#37474F"/>
<path d="M132.347 67.5166C132.281 67.6224 132.2 67.7184 132.107 67.8018C128.39 71.0919 124.372 74.0293 120.105 76.5754C120.009 76.6427 119.898 76.6845 119.782 76.6967C119.666 76.709 119.549 76.6913 119.441 76.6453C119.334 76.5994 119.241 76.5267 119.17 76.4343C119.099 76.342 119.053 76.233 119.037 76.1179L118.092 72.1792C122.146 69.955 126.366 68.0432 130.715 66.4606L132.347 67.5166Z" fill="#37474F"/>
<path opacity="0.1" d="M130.343 64.261L126.861 62.2681C126.446 61.9988 126.1 61.6357 125.852 61.2083C125.604 60.7808 125.461 60.3011 125.434 59.8083V52.4604L128.103 50.925L128.544 50.6712C128.556 50.6621 128.57 50.6547 128.585 50.6492L131.105 63.7126C131.234 64.3299 130.888 64.5743 130.343 64.261Z" fill="white"/>
<path opacity="0.1" d="M122.899 53.9172V59.006C122.899 59.5512 122.517 59.7705 122.042 59.4979L117.616 56.9567L118.142 56.6433L122.899 53.9172Z" fill="white"/>
<path d="M128.922 43.4704L97.0821 61.7541L86.1381 53.7544L73.6095 46.56L105.449 28.2794L117.978 35.4738L128.922 43.4704Z" fill="#76A0FF"/>
<path d="M93.8246 77.0113L96.1967 75.642C96.2753 75.5846 96.368 75.5494 96.465 75.54C96.562 75.5306 96.6598 75.5475 96.748 75.5887L97.3088 75.9209C97.3889 75.9761 97.4526 76.0519 97.4931 76.1401C97.5335 76.2283 97.5493 76.3258 97.5387 76.4222V82.0813C97.5244 82.35 97.4465 82.6115 97.3113 82.8446C97.1761 83.0776 96.9874 83.2756 96.7606 83.4224L94.3885 84.7917C94.3101 84.8493 94.2175 84.8849 94.1206 84.8948C94.0236 84.9047 93.9258 84.8886 93.8372 84.8481C93.6986 84.7666 93.4151 84.5943 93.2764 84.5159C93.1963 84.46 93.1327 84.3836 93.0923 84.2949C93.0518 84.2062 93.036 84.1083 93.0465 84.0115V78.3524C93.061 78.0838 93.1391 77.8223 93.2743 77.5893C93.4095 77.3563 93.598 77.1583 93.8246 77.0113Z" fill="#FAFAFA"/>
<path d="M93.0369 78.3523V84.0144C93.0267 84.1108 93.0426 84.2082 93.083 84.2964C93.1235 84.3845 93.187 84.4603 93.2669 84.5158C93.4023 84.591 93.6165 84.7257 93.8118 84.8291C93.7383 84.7711 93.6804 84.6957 93.6436 84.6098C93.6067 84.5239 93.592 84.4302 93.6008 84.3372V78.6844C93.6112 78.4201 93.6881 78.1627 93.8245 77.9355L93.2574 77.6034C93.1226 77.831 93.0468 78.0883 93.0369 78.3523Z" fill="#E0E0E0"/>
<path d="M96.7513 83.4222L94.3791 84.7915C93.9507 85.039 93.601 84.8385 93.601 84.3465V78.6875C93.6158 78.4185 93.694 78.1567 93.8291 77.9232C93.9643 77.6897 94.1527 77.4911 94.3791 77.3433L96.7513 75.9739C97.1797 75.7295 97.5294 75.9269 97.5294 76.422V82.0811C97.5151 82.3498 97.4372 82.6113 97.3019 82.8444C97.1667 83.0774 96.978 83.2754 96.7513 83.4222Z" fill="#F0F0F0"/>
<path d="M98.8651 84.362C99.0975 84.5134 99.2908 84.7171 99.4293 84.9566C99.5678 85.1962 99.6475 85.4648 99.6621 85.7408C99.6621 86.2484 99.3061 86.4552 98.8651 86.2014C98.6323 86.0504 98.4387 85.8468 98.3002 85.6072C98.1617 85.3676 98.0821 85.0987 98.0681 84.8227C98.0681 84.315 98.424 84.1082 98.8651 84.362Z" fill="#37474F"/>
<path d="M96.0616 87.0221C95.9574 87.0209 95.8554 86.9929 95.7654 86.9407C95.6755 86.8898 95.6009 86.8159 95.5494 86.7266C95.4979 86.6373 95.4713 86.536 95.4725 86.4331V80.6926C95.4689 80.6648 95.4714 80.6365 95.4796 80.6098C95.4879 80.583 95.5018 80.5582 95.5205 80.5372C95.5391 80.5162 95.562 80.4994 95.5877 80.4878C95.6133 80.4763 95.6412 80.4703 95.6694 80.4703C95.6975 80.4703 95.7254 80.4763 95.751 80.4878C95.7767 80.4994 95.7996 80.5162 95.8183 80.5372C95.8369 80.5582 95.8508 80.583 95.8591 80.6098C95.8673 80.6365 95.8698 80.6648 95.8662 80.6926V86.4393C95.865 86.4738 95.8735 86.5079 95.8908 86.5378C95.9081 86.5677 95.9334 86.5922 95.9639 86.6085C95.9934 86.6262 96.0271 86.6356 96.0616 86.6356C96.096 86.6356 96.1297 86.6262 96.1592 86.6085L98.7676 85.1107C98.7899 85.0979 98.8146 85.0895 98.8402 85.0862C98.8657 85.0828 98.8917 85.0846 98.9166 85.0913C98.9415 85.098 98.9648 85.1095 98.9852 85.1252C99.0056 85.1409 99.0227 85.1605 99.0354 85.1828C99.0609 85.2283 99.0675 85.2818 99.054 85.3321C99.0405 85.3824 99.0078 85.4255 98.9629 85.4523L96.3451 86.9469C96.2583 86.9949 96.1609 87.0207 96.0616 87.0221Z" fill="#263238"/>
</svg>
