<svg width="360" height="254" viewBox="0 0 360 254" fill="none" xmlns="http://www.w3.org/2000/svg">
<g clip-path="url(#clip0_632_168892)">
<g clip-path="url(#clip1_632_168892)">
<path d="M0 0H360V254H0V0Z" fill="url(#paint0_linear_632_168892)"/>
<mask id="mask0_632_168892" style="mask-type:luminance" maskUnits="userSpaceOnUse" x="-59" y="0" width="456" height="262">
<path d="M397 0H-59V262H397V0Z" fill="white"/>
</mask>
<g mask="url(#mask0_632_168892)">
<path d="M-103.08 47.4764C-73.592 50.6204 18.52 39.0924 100.904 122.146C148.875 170.512 191.01 264.779 243.298 246.439C299.659 226.684 287.195 89.4488 337.72 70.7944C400.952 47.4764 452.45 154.634 452.45 154.634" stroke="#52A3FF" stroke-miterlimit="10"/>
<path d="M-103.08 54.0789C-73.2272 55.1269 17.0608 43.5465 98.7152 124.033C134.83 159.612 167.966 220.868 204.507 241.618C216.302 248.326 228.462 250.631 241.23 246.387C297.47 227.68 287.134 94.8985 337.781 76.9777C400.405 54.8125 451.355 159.036 452.51 159.612" stroke="#52A3FF" stroke-width="0.9786" stroke-miterlimit="10"/>
<path d="M-103.08 60.6288C-72.9232 59.5808 15.6624 48.0004 96.4656 125.867C132.52 160.608 166.021 220.501 202.683 241.304C214.357 247.959 226.395 250.264 239.102 246.282C295.282 228.623 287.013 100.296 337.72 83.1084C399.736 62.096 450.2 163.333 452.389 164.59" stroke="#52A3FF" stroke-width="0.9571" stroke-miterlimit="10"/>
<path d="M-103.08 67.2311C-72.5584 64.0871 14.264 52.4543 94.2768 127.753C130.27 161.604 164.136 220.239 200.92 241.042C212.533 247.644 224.45 250.002 236.974 246.282C293.032 229.724 286.83 105.85 337.72 89.3439C399.067 69.4843 449.106 167.787 452.389 169.621" stroke="#52A3FF" stroke-width="0.9357" stroke-miterlimit="10"/>
<path d="M-103.08 73.8336C-72.1936 68.5412 12.8656 56.9084 92.0272 129.64C127.96 162.599 162.13 219.925 199.157 240.78C210.648 247.278 222.443 249.688 234.907 246.23C290.904 230.719 286.77 111.3 337.72 95.5272C398.398 76.768 448.011 172.136 452.389 174.599" stroke="#52A3FF" stroke-width="0.9143" stroke-miterlimit="10"/>
<path d="M-103.08 80.3837C-71.8896 72.9953 11.4672 61.3101 89.8384 131.474C125.71 163.595 160.245 219.611 197.394 240.466C208.824 246.911 220.498 249.321 232.84 246.125C288.776 231.663 286.648 116.697 337.781 101.658C397.79 84.0517 446.917 176.485 452.45 179.525" stroke="#52A3FF" stroke-width="0.8929" stroke-miterlimit="10"/>
<path d="M-103.08 86.9861C-71.5248 77.5017 10.1296 65.7641 87.5888 133.36C123.4 164.59 158.299 219.296 195.57 240.204C206.878 246.596 218.491 249.007 230.712 246.072C286.587 232.71 286.526 122.146 337.781 107.894C397.122 91.3877 445.822 180.887 452.45 184.607" stroke="#52A3FF" stroke-width="0.8714" stroke-miterlimit="10"/>
<path d="M-103.08 93.5359C-71.16 81.9555 8.79199 70.1656 85.4 135.246C121.15 165.638 156.354 219.034 193.806 239.942C205.054 246.282 216.485 248.692 228.645 246.02C284.459 233.758 286.405 127.596 337.781 114.077C396.453 98.6187 444.728 185.288 452.45 189.585" stroke="#52A3FF" stroke-width="0.85" stroke-miterlimit="10"/>
<path d="M-103.08 100.139C-70.856 86.4621 7.45439 74.6197 83.1504 137.133C118.901 166.634 154.408 218.72 191.982 239.68C203.109 245.915 214.478 248.378 226.517 245.968C282.27 234.754 286.162 133.046 337.781 120.26C395.723 105.903 443.634 189.638 452.45 194.563" stroke="#52A3FF" stroke-width="0.8286" stroke-miterlimit="10"/>
<path d="M-103.08 106.688C-70.4912 90.9159 6.1776 78.9687 80.9616 138.967C116.712 167.63 152.462 218.353 190.28 239.418C201.346 245.601 212.594 248.064 224.45 245.915C280.203 235.802 286.04 138.443 337.781 126.443C395.054 113.134 442.478 194.039 452.45 199.541" stroke="#52A3FF" stroke-width="0.8071" stroke-miterlimit="10"/>
<path d="M-103.08 113.291C-70.1264 95.3701 4.90079 83.4229 78.712 140.853C114.402 168.625 150.517 218.091 188.456 239.156C199.4 245.286 210.587 247.802 222.322 245.915C278.014 236.902 285.858 143.945 337.781 132.679C394.325 120.417 441.384 198.493 452.45 204.624" stroke="#52A3FF" stroke-width="0.7857" stroke-miterlimit="10"/>
<path d="M-103.08 119.893C-69.8224 99.8765 3.68479 87.8245 76.5232 142.74C112.213 169.673 148.632 217.777 186.693 238.894C197.576 244.972 208.642 247.487 220.254 245.863C275.947 238.003 285.675 149.342 337.781 138.862C393.595 127.649 440.29 202.843 452.45 209.602" stroke="#52A3FF" stroke-width="0.7643" stroke-miterlimit="10"/>
<path d="M-103.08 126.443C-69.4576 104.33 2.4688 92.1736 74.2736 144.574C110.024 170.616 146.626 217.462 184.869 238.579C195.63 244.605 206.635 247.12 218.126 245.758C273.819 238.998 285.432 154.687 337.781 144.993C392.866 134.775 439.195 207.192 452.45 214.528" stroke="#52A3FF" stroke-width="0.7429" stroke-miterlimit="10"/>
<path d="M-103.08 133.046C-69.0928 108.837 1.2528 96.5753 72.0848 146.46C107.835 171.664 144.802 217.095 183.106 238.317C193.806 244.238 204.69 246.858 216.059 245.706C271.752 240.099 285.31 160.084 337.781 151.176C392.075 142.006 438.04 211.541 452.389 219.506" stroke="#52A3FF" stroke-width="0.7214" stroke-miterlimit="10"/>
<path d="M-103.08 139.596C-68.7888 113.291 0.097593 100.872 69.896 148.294C105.646 172.608 142.856 216.728 181.342 238.003C191.922 243.872 202.683 246.492 213.931 245.601C269.624 241.094 285.067 165.429 337.781 157.359C391.346 149.132 436.946 215.943 452.389 224.536" stroke="#52A3FF" stroke-width="0.7" stroke-miterlimit="10"/>
<path d="M-103.08 146.198C-68.424 117.797 -1.05761 105.274 67.6464 150.18C103.458 173.603 140.91 216.466 179.579 237.741C190.098 243.505 200.738 246.23 211.864 245.548C267.557 242.195 284.885 170.774 337.781 163.542C390.555 156.311 435.851 220.292 452.389 229.514" stroke="#52A3FF" stroke-width="0.6786" stroke-miterlimit="10"/>
<path d="M-103.08 152.748C-68.0592 122.199 -2.152 109.518 65.4576 152.014C101.33 174.546 139.026 216.1 177.816 237.426C188.213 243.138 198.792 245.863 209.797 245.444C265.49 243.295 284.642 176.066 337.842 169.673C389.886 163.385 434.818 224.641 452.45 234.44" stroke="#52A3FF" stroke-width="0.6571" stroke-miterlimit="10"/>
<path d="M-103.08 159.35C-67.7552 126.705 -3.24641 113.867 63.208 153.901C99.1408 175.542 137.019 215.837 175.992 237.164C186.328 242.823 196.846 244.867 207.669 245.391C263.301 248.273 284.398 181.411 337.781 175.856C389.035 170.511 433.602 228.99 452.389 239.417" stroke="#52A3FF" stroke-width="0.6357" stroke-miterlimit="10"/>
<path d="M-103.08 165.953C-67.3904 131.212 -4.28001 118.164 61.0192 155.787C97.0128 176.538 135.134 215.523 174.229 236.902C184.443 242.509 194.901 244.553 205.602 245.391C261.173 249.478 284.216 186.808 337.842 182.092C388.306 177.691 432.568 233.444 452.45 244.5" stroke="#52A3FF" stroke-width="0.6143" stroke-miterlimit="10"/>
<path d="M-103.08 172.503C-67.0256 135.666 -5.3136 122.409 58.7696 157.621C94.8848 177.481 133.128 215.209 172.405 236.588C182.558 242.143 192.894 244.238 203.474 245.286C258.923 250.631 283.973 192.048 337.781 188.223C387.454 184.712 431.413 237.741 452.389 249.426" stroke="#52A3FF" stroke-width="0.5929" stroke-miterlimit="10"/>
<path d="M-103.08 179.105C-66.7216 140.172 -6.2864 126.653 56.5808 159.56C92.8176 178.529 131.243 214.947 170.702 236.378C180.734 241.828 190.949 244.762 201.406 245.286C257.221 247.906 283.73 197.393 337.842 194.458C386.725 191.838 430.379 242.195 452.45 254.456" stroke="#52A3FF" stroke-width="0.5714" stroke-miterlimit="10"/>
<path d="M-103.08 185.655C-66.3568 144.626 -7.25921 130.845 54.3312 161.394C90.6896 179.42 129.298 214.632 168.878 236.064C178.85 241.461 188.942 244.448 199.278 245.182C255.093 249.059 284.034 207.663 337.842 200.589C385.448 194.354 429.224 246.544 452.45 259.434" stroke="#52A3FF" stroke-width="0.55" stroke-miterlimit="10"/>
<path d="M-103.08 192.258C-65.992 149.08 -8.1712 135.037 52.1424 163.28C88.6224 180.363 127.352 214.318 167.115 235.802C176.965 241.147 186.997 244.186 197.211 245.129C253.026 250.264 283.73 212.903 337.842 206.825C384.779 201.532 428.13 250.946 452.45 264.465" stroke="#52A3FF" stroke-width="0.5286" stroke-miterlimit="10"/>
<path d="M-103.08 198.808C-65.688 153.534 -9.0832 139.124 49.8928 165.114C86.5552 181.254 125.406 214.004 165.291 235.488C175.08 240.78 184.99 243.872 195.083 245.024C250.898 251.417 283.304 217.986 337.842 212.956C384.11 208.659 427.035 255.295 452.45 269.39" stroke="#52A3FF" stroke-width="0.5071" stroke-miterlimit="10"/>
<path d="M-103.08 205.41C-65.3232 158.041 -9.99521 143.264 47.704 167.001C84.488 182.144 123.461 213.689 163.528 235.226C173.195 240.413 183.045 243.61 193.016 244.972C248.83 252.675 282.939 223.069 337.842 219.139C383.442 215.89 425.941 259.644 452.389 274.368" stroke="#52A3FF" stroke-width="0.4857" stroke-miterlimit="10"/>
<path d="M-103.08 212.013C-64.9584 162.547 -10.8464 147.351 45.5152 168.887C82.4816 183.035 121.515 213.48 161.826 235.016C171.371 240.151 181.16 243.4 191.01 245.025C246.824 254.037 282.696 228.152 337.963 225.427C382.894 223.174 424.907 264.151 452.51 279.504" stroke="#52A3FF" stroke-width="0.4643" stroke-miterlimit="10"/>
<path d="M-103.08 218.563C-64.6544 167.001 -11.7584 151.333 43.2656 170.721C80.4144 183.821 119.57 213.113 160.002 234.702C169.486 239.785 179.154 243.086 188.821 244.92C244.635 255.243 282.331 228.623 337.842 231.558C382.043 233.916 423.691 268.447 452.389 284.429" stroke="#52A3FF" stroke-width="0.4429" stroke-miterlimit="10"/>
<path d="M-103.08 225.165C-64.2896 171.455 -12.5488 155.316 41.0768 172.608C78.408 184.66 117.624 212.851 158.238 234.44C167.602 239.47 177.208 242.824 186.754 244.867C242.568 256.552 282.149 233.758 337.902 237.741C381.314 240.832 422.658 272.849 452.45 289.407" stroke="#52A3FF" stroke-width="0.4214" stroke-miterlimit="10"/>
<path d="M-103.08 231.715C-63.9248 175.961 -13.4 159.298 38.8272 174.494C76.4016 185.393 115.678 212.536 156.414 234.125C165.717 239.103 175.141 242.562 184.626 244.762C240.379 257.81 281.906 238.841 337.842 243.872C380.523 247.749 421.502 277.146 452.389 294.333" stroke="#52A3FF" stroke-width="0.4" stroke-miterlimit="10"/>
<path d="M-103.08 238.317C-63.6208 180.415 -14.2512 163.176 36.6384 176.328C74.3952 186.127 113.794 212.222 154.651 233.863C163.832 238.789 173.195 242.3 182.558 244.71C238.251 259.12 281.723 243.924 337.902 250.107C379.854 254.718 420.408 281.6 452.45 299.416" stroke="#52A3FF" stroke-width="0.3786" stroke-miterlimit="10"/>
<path d="M-103.08 244.867C-63.256 184.922 -15.1024 167.001 34.3888 178.215C72.3888 186.808 111.787 211.908 152.827 233.601C161.947 238.422 171.189 242.038 180.43 244.658C236.062 260.43 281.541 248.955 337.842 256.291C379.003 261.635 419.253 286.001 452.389 304.394" stroke="#52A3FF" stroke-width="0.3571" stroke-miterlimit="10"/>
<path d="M-103.08 251.47C-62.8912 189.376 -15.9536 170.826 32.2 180.048C70.3824 187.384 109.902 211.593 151.125 233.287C160.123 238.055 169.304 241.723 178.424 244.553C233.995 261.74 281.48 253.932 337.963 262.421C378.456 268.5 418.28 290.298 452.51 309.319" stroke="#52A3FF" stroke-width="0.3357" stroke-miterlimit="10"/>
</g>
</g>
</g>
<defs>
<linearGradient id="paint0_linear_632_168892" x1="18.5" y1="254" x2="310.5" y2="-127" gradientUnits="userSpaceOnUse">
<stop stop-color="#074E9F"/>
<stop offset="0.489583" stop-color="#0A6EE1"/>
<stop offset="1" stop-color="#A7CBF3"/>
</linearGradient>
<clipPath id="clip0_632_168892">
<path d="M0 0H360V238C360 246.837 352.837 254 344 254H16C7.16344 254 0 246.837 0 238V0Z" fill="white"/>
</clipPath>
<clipPath id="clip1_632_168892">
<rect width="456" height="262" fill="white" transform="translate(-59)"/>
</clipPath>
</defs>
</svg>
