<svg width="136" height="132" viewBox="0 0 136 132" fill="none" xmlns="http://www.w3.org/2000/svg">
<g opacity="0.3">
<path d="M19.5016 83.0078C19.5299 84.1521 19.3134 85.2894 18.8666 86.3443C18.5313 87.1281 17.961 87.7897 17.2334 88.239L17.1784 88.2718L13.0899 90.6154L11.431 87.33L11.3172 87.1109C10.3842 86.3869 9.5513 85.5436 8.8399 84.603C8.6564 84.3731 8.47289 84.1358 8.31875 83.8912C7.29965 82.4193 6.50561 80.8053 5.96254 79.1017C5.54027 77.8135 5.30063 76.473 5.25054 75.119L5.22118 75.0642L4.80279 74.2392L3.91096 72.5417L3.54395 71.8116L7.18836 69.7125L7.43426 69.5702L7.53702 69.5118C8.09635 69.1964 8.72916 69.0328 9.37207 69.0372C10.4261 69.0725 11.4524 69.3821 12.3485 69.9352C16.3049 72.2241 19.5016 78.0686 19.5016 83.0078Z" fill="#263238"/>
<path d="M1.08496 77.1921C1.08496 81.4522 3.46319 86.3841 6.64517 89.111C7.13095 89.529 7.6543 89.9017 8.20863 90.2244C12.154 92.4951 15.3543 90.323 15.3507 85.3802C15.3507 81.6494 13.5156 77.3965 10.9465 74.5673C10.9465 74.5673 10.9465 74.5673 10.9245 74.5454C10.1429 73.6752 9.23196 72.9291 8.22331 72.3332C4.26327 70.0845 1.08496 72.2529 1.08496 77.1921Z" fill="#37474F"/>
<path d="M8.2057 75.3314C5.69902 73.8894 3.66211 75.3898 3.66211 78.6862C3.66211 81.9826 5.69902 85.8194 8.2057 87.2613C10.7124 88.7033 12.753 87.1993 12.753 83.9065C12.753 80.6137 10.716 76.7734 8.2057 75.3314Z" fill="#455A64"/>
<path d="M1.08496 77.1922C1.08496 81.4524 3.46319 86.3842 6.64517 89.1112C4.43529 86.6217 2.87938 83.6268 2.11626 80.3937C1.51069 77.5463 1.74925 73.4577 4.19721 72.4246C6.64517 71.3915 9.90055 73.5672 10.9245 74.5602C10.1429 73.6899 9.23196 72.9439 8.22331 72.348C4.26327 70.0846 1.08496 72.253 1.08496 77.1922Z" fill="#455A64"/>
<path d="M8.20581 78.2007C6.90293 77.4523 5.84961 78.2299 5.84961 79.942C5.84961 81.6541 6.90293 83.6436 8.20581 84.392C9.5087 85.1403 10.5657 84.3591 10.5657 82.6507C10.5657 80.9422 9.52705 78.949 8.20581 78.2007Z" fill="#E0E0E0"/>
<path d="M7.4525 78.1671C7.291 78.0732 7.1167 78.0031 6.93502 77.959C6.28174 78.1342 5.83398 78.8461 5.83398 79.9412C5.87597 81.2395 6.34676 82.4878 7.17357 83.4932C7.26245 83.5622 7.35561 83.6256 7.4525 83.683C8.61225 84.3474 9.54813 83.6575 9.54813 82.1352C9.54813 80.6129 8.61225 78.8351 7.4525 78.1671Z" fill="#F5F5F5"/>
<path d="M3.22461 67.1621V68.8852L54.206 98.1623V96.4393L3.22461 67.1621Z" fill="#455A64"/>
<path d="M18.9585 77.9229L16.1729 76.3203V85.735C16.1729 86.2424 16.5399 86.4469 16.9693 86.1913L19.1713 84.9319L18.9621 84.8078L18.9585 77.9229Z" fill="#5F90FF"/>
<path opacity="0.7" d="M18.9585 77.9229L16.1729 76.3203V85.735C16.1729 86.2424 16.5399 86.4469 16.9693 86.1913L19.1713 84.9319L18.9621 84.8078L18.9585 77.9229Z" fill="white"/>
<path d="M18.959 77.9238V83.0893L31.7126 90.4123V85.2468L18.959 77.9238Z" fill="#37474F"/>
<path d="M31.7127 90.4108L18.9591 83.0879L18.2178 83.5259L31.7127 91.2651V90.4108Z" fill="#263238"/>
<path d="M18.2207 84.3891V83.5312L31.712 91.2667V92.1355L18.2207 84.3891Z" fill="#455A64"/>
<path d="M31.7129 83.5234V93.8581L42.2094 99.8851V89.5505L31.7129 83.5234Z" fill="#37474F"/>
<path d="M42.209 89.5508V99.8854L52.7055 105.912V95.5814L42.209 89.5508Z" fill="#37474F"/>
<path d="M52.7051 105.911L55.7036 104.188V95.5762L54.2062 96.4377L52.7051 95.5798V105.911Z" fill="#263238"/>
<path d="M41.8311 99.665V89.334L42.5798 89.7647V100.096L41.8311 99.665Z" fill="#263238"/>
<path d="M47.0791 95.7934V94.0703L47.8278 94.5011L47.8315 96.2241L47.0791 95.7934Z" fill="#E0E0E0"/>
<path d="M36.583 89.7699V88.0469L37.3317 88.474L37.3354 90.2007L36.583 89.7699Z" fill="#E0E0E0"/>
<path opacity="0.2" d="M30.9452 83.082V89.9742L30.2148 90.4086V91.2738L31.7122 92.1353V83.5237L30.9452 83.082Z" fill="black"/>
<path d="M0.226562 65.4413L54.2064 96.4379L54.2101 93.0064L0.226562 62.0098V65.4413Z" fill="#5F90FF"/>
<g opacity="0.6">
<path d="M0.226562 65.4413L54.2064 96.4379L54.2101 93.0064L0.226562 62.0098V65.4413Z" fill="white"/>
</g>
<path d="M54.2061 96.4387L55.7035 95.5772V92.1348L54.2061 92.9963V96.4387Z" fill="#5F90FF"/>
<g opacity="0.5">
<path d="M54.2061 96.4387L55.7035 95.5772V92.1348L54.2061 92.9963V96.4387Z" fill="white"/>
</g>
<g opacity="0.1">
<path d="M54.2061 96.4387L55.7035 95.5772V92.1348L54.2061 92.9963V96.4387Z" fill="black"/>
</g>
<path d="M37.713 40.4688L0.226562 62.0105L54.2064 92.9961L91.6929 71.469L37.713 40.4688Z" fill="#5F90FF"/>
<g opacity="0.8">
<path d="M37.713 40.4688L0.226562 62.0105L54.2064 92.9961L91.6929 71.469L37.713 40.4688Z" fill="white"/>
</g>
<path d="M4.72266 19.8041L52.7056 47.3582L87.1935 27.5541L39.2106 0L4.72266 19.8041Z" fill="#E4E7EC"/>
<path d="M52.7056 90.4131V47.3588L4.72266 19.8047V62.859L52.7056 90.4131Z" fill="#D0D5DD"/>
<path d="M52.7061 90.4131L87.194 70.609V27.5547L52.7061 47.3588V90.4131Z" fill="#98A2B3"/>
<path d="M38.855 77.1938C38.5838 77.0048 38.3617 76.7542 38.2073 76.4628C38.0528 76.1714 37.9704 75.8476 37.9668 75.5183V72.9629L39.7725 74.0179L39.8899 73.996V74.1676V76.4601C39.9029 76.6104 39.8757 76.7613 39.8113 76.8979C39.7469 77.0344 39.6474 77.1516 39.5229 77.2376C39.4363 77.2851 39.3392 77.3102 39.2403 77.3107C39.1041 77.3043 38.9716 77.2641 38.855 77.1938ZM39.0568 74.4341L38.9247 75.3321H38.2567V75.5183C38.2618 75.7961 38.3306 76.069 38.4578 76.3164C38.585 76.5637 38.7673 76.779 38.9908 76.9456C39.0466 76.9852 39.1118 77.0097 39.1799 77.0167C39.2481 77.0238 39.317 77.0131 39.3798 76.9858C39.4568 76.9232 39.5165 76.842 39.5531 76.75C39.5897 76.658 39.6021 76.5582 39.589 76.4601V74.3355L39.0568 74.4341ZM38.7999 74.1858L39.3321 74.0909L38.2567 73.4594V75.0437H38.6751L38.7999 74.1858Z" fill="#F6F7F9"/>
<path d="M38.9283 79.14C38.9474 79.14 38.9664 79.1362 38.984 79.1288C39.0016 79.1214 39.0175 79.1106 39.0309 79.097C39.0442 79.0834 39.0547 79.0672 39.0616 79.0495C39.0686 79.0318 39.072 79.0129 39.0715 78.9939V77.0701C39.0715 77.0323 39.0564 76.9961 39.0295 76.9694C39.0027 76.9427 38.9663 76.9277 38.9283 76.9277C38.8904 76.9277 38.854 76.9427 38.8271 76.9694C38.8003 76.9961 38.7852 77.0323 38.7852 77.0701V78.9939C38.7847 79.0129 38.7881 79.0318 38.795 79.0495C38.802 79.0672 38.8125 79.0834 38.8258 79.097C38.8391 79.1106 38.8551 79.1214 38.8727 79.1288C38.8903 79.1362 38.9092 79.14 38.9283 79.14Z" fill="#F6F7F9"/>
<path d="M39.7684 79.6206C39.794 79.621 39.8191 79.6144 39.8411 79.6015C39.8631 79.5886 39.8811 79.57 39.8932 79.5476C39.9031 79.5314 39.9096 79.5134 39.9123 79.4946C39.9151 79.4758 39.914 79.4567 39.9093 79.4383C39.9045 79.4199 39.896 79.4027 39.8845 79.3876C39.8729 79.3726 39.8584 79.3599 39.8418 79.3505L38.1536 78.3831C38.1377 78.3729 38.1198 78.366 38.1011 78.363C38.0824 78.36 38.0633 78.361 38.045 78.3658C38.0266 78.3706 38.0095 78.3792 37.9947 78.391C37.9799 78.4028 37.9678 78.4175 37.9591 78.4342C37.9492 78.4505 37.9427 78.4685 37.94 78.4873C37.9372 78.5061 37.9383 78.5252 37.9431 78.5435C37.9478 78.5619 37.9563 78.5791 37.9678 78.5942C37.9794 78.6093 37.9939 78.6219 38.0105 78.6313L39.695 79.5987C39.7174 79.6117 39.7426 79.6192 39.7684 79.6206Z" fill="#F6F7F9"/>
<path d="M44.8152 82.5965C44.8705 82.598 44.9252 82.5841 44.973 82.5564C45.0315 82.5204 45.0787 82.4689 45.1092 82.4076C45.1397 82.3462 45.1523 82.2776 45.1455 82.2096V81.8153C45.14 81.781 45.1224 81.7498 45.0958 81.7272C45.0692 81.7047 45.0354 81.6923 45.0005 81.6923C44.9656 81.6923 44.9318 81.7047 44.9052 81.7272C44.8787 81.7498 44.8611 81.781 44.8555 81.8153V82.2096C44.8555 82.268 44.8555 82.3008 44.8262 82.3081C44.7934 82.312 44.7604 82.3028 44.7344 82.2826C44.6447 82.1994 44.574 82.098 44.5271 81.9852C44.4803 81.8725 44.4584 81.7511 44.4628 81.6291V79.0738C44.4633 79.0548 44.46 79.0358 44.453 79.0182C44.4461 79.0005 44.4356 78.9843 44.4222 78.9707C44.4089 78.9571 44.393 78.9463 44.3754 78.9389C44.3577 78.9315 44.3388 78.9277 44.3197 78.9277C44.2808 78.9277 44.2434 78.9431 44.2159 78.9705C44.1884 78.9979 44.1729 79.035 44.1729 79.0738V81.6291C44.1654 81.801 44.1987 81.9722 44.2701 82.1288C44.3416 82.2855 44.4491 82.4232 44.584 82.5308C44.6541 82.5721 44.7337 82.5948 44.8152 82.5965Z" fill="#F6F7F9"/>
<path d="M42.4887 78.1459V78.0619C42.4445 77.8152 42.4779 77.5609 42.5842 77.3338C42.6905 77.1066 42.8646 76.9175 43.0828 76.7922C43.3009 76.6669 43.5526 76.6116 43.8036 76.6337C44.0545 76.6557 44.2926 76.7542 44.4852 76.9156C45.0252 77.2653 45.4745 77.7369 45.7965 78.292C46.1186 78.847 46.3043 79.4699 46.3386 80.1098V80.3581L42.4887 78.1459ZM43.2227 77.0507C43.0744 77.1566 42.9555 77.2983 42.8772 77.4623C42.7989 77.6264 42.7637 77.8076 42.775 77.9889L46.034 79.8616C45.9622 79.3188 45.7736 78.7979 45.4809 78.3342C45.1883 77.8705 44.7986 77.4751 44.3384 77.1748C44.1175 77.0381 43.8644 76.9613 43.6044 76.9521C43.473 76.9496 43.3431 76.9797 43.2264 77.0398L43.2227 77.0507Z" fill="#F6F7F9"/>
<path d="M50.6322 85.8314C50.6513 85.8314 50.6702 85.8276 50.6878 85.8202C50.7054 85.8129 50.7213 85.802 50.7347 85.7884C50.748 85.7748 50.7585 85.7587 50.7655 85.741C50.7724 85.7233 50.7758 85.7044 50.7753 85.6854V80.7827C50.7758 80.7637 50.7724 80.7448 50.7655 80.7271C50.7585 80.7094 50.748 80.6933 50.7347 80.6797C50.7213 80.6661 50.7054 80.6553 50.6878 80.6479C50.6702 80.6405 50.6513 80.6367 50.6322 80.6367C50.5932 80.6367 50.5559 80.6521 50.5283 80.6795C50.5008 80.7069 50.4854 80.744 50.4854 80.7827V85.6854C50.4854 85.7241 50.5008 85.7613 50.5283 85.7886C50.5559 85.816 50.5932 85.8314 50.6322 85.8314Z" fill="#F6F7F9"/>
<path d="M51.0616 81.8997C51.081 81.9035 51.101 81.9035 51.1204 81.8997C51.1378 81.8922 51.1536 81.8813 51.1668 81.8676C51.18 81.8539 51.1903 81.8378 51.1971 81.8201C51.204 81.8024 51.2072 81.7836 51.2066 81.7646C51.206 81.7457 51.2017 81.7271 51.1938 81.7099L50.6799 80.5234L50.1037 81.1878C50.0789 81.2169 50.0667 81.2545 50.0698 81.2925C50.0729 81.3305 50.091 81.3657 50.1202 81.3904C50.1495 81.4151 50.1873 81.4273 50.2255 81.4242C50.2637 81.4211 50.2991 81.4031 50.3239 81.374L50.5955 81.0601L50.9295 81.823C50.942 81.8469 50.961 81.8668 50.9844 81.8804C51.0078 81.894 51.0346 81.9007 51.0616 81.8997Z" fill="#F6F7F9"/>
<path d="M49.3 85.0712C49.3383 85.0703 49.3747 85.0545 49.4014 85.0272C49.4282 84.9999 49.4432 84.9633 49.4431 84.9252V80.0226C49.4465 80.0017 49.4452 79.9804 49.4395 79.96C49.4338 79.9397 49.4236 79.9208 49.4099 79.9048C49.3961 79.8887 49.379 79.8758 49.3597 79.867C49.3404 79.8581 49.3194 79.8535 49.2982 79.8535C49.2769 79.8535 49.256 79.8581 49.2367 79.867C49.2174 79.8758 49.2003 79.8887 49.1865 79.9048C49.1727 79.9208 49.1626 79.9397 49.1568 79.96C49.1511 79.9804 49.1499 80.0017 49.1532 80.0226V84.9252C49.1532 84.9639 49.1687 85.0011 49.1962 85.0285C49.2237 85.0558 49.2611 85.0712 49.3 85.0712Z" fill="#F6F7F9"/>
<path d="M49.7221 81.1399C49.7415 81.1434 49.7614 81.1434 49.7808 81.1399C49.7983 81.1324 49.8141 81.1215 49.8273 81.1078C49.8405 81.0942 49.8508 81.078 49.8576 81.0603C49.8644 81.0427 49.8677 81.0238 49.8671 81.0049C49.8665 80.9859 49.8621 80.9673 49.8542 80.9501L49.3404 79.7637L48.7642 80.4244C48.7442 80.454 48.7358 80.4898 48.7405 80.5251C48.7453 80.5605 48.7628 80.5928 48.7899 80.6162C48.817 80.6395 48.8517 80.6522 48.8875 80.6518C48.9233 80.6515 48.9578 80.6381 48.9844 80.6142L49.256 80.3003L49.59 81.0633C49.6024 81.0872 49.6215 81.1071 49.6449 81.1206C49.6683 81.1342 49.695 81.1409 49.7221 81.1399Z" fill="#F6F7F9"/>
<path d="M20.1956 59.8548V67.7509C20.1956 68.0539 19.979 68.178 19.7148 68.0247L7.32453 60.9061C7.18428 60.8165 7.06752 60.6949 6.98391 60.5514C6.90031 60.4079 6.85226 60.2467 6.84375 60.0811V52.1814C6.84375 51.8747 7.06029 51.7543 7.32453 51.904L19.7185 59.0371C19.8565 59.1271 19.9714 59.2478 20.0543 59.3898C20.1371 59.5317 20.1855 59.691 20.1956 59.8548Z" fill="#F9FAFB"/>
<path d="M7.61133 53.0352L8.01137 53.2651V60.4421L7.61133 60.2121V53.0352Z" fill="#E4E7EC"/>
<path d="M9.24121 53.9688L9.93119 54.374V61.5509L9.24121 61.1493V53.9688Z" fill="#E4E7EC"/>
<path d="M10.8701 54.9043L11.2702 55.1343V62.3149L10.8701 62.0849V54.9043Z" fill="#E4E7EC"/>
<path d="M12.0996 55.5977L12.8997 56.0722V63.2492L12.0996 62.7782V55.5977Z" fill="#E4E7EC"/>
<path d="M14.1299 56.7773L14.5299 57.0073V64.1843L14.1299 63.9543V56.7773Z" fill="#E4E7EC"/>
<path d="M15.2998 57.4336L16.1586 57.941V65.1179L15.2998 64.6142V57.4336Z" fill="#E4E7EC"/>
<path d="M17.3887 58.6465L17.7887 58.8765L17.785 66.0571L17.3887 65.8234V58.6465Z" fill="#E4E7EC"/>
<path d="M18.3174 59.1719L18.5156 59.2887V66.4656L18.3174 66.3525V59.1719Z" fill="#E4E7EC"/>
<path d="M16.6436 58.2559L16.8454 58.369V65.5496L16.6436 65.4328V58.2559Z" fill="#E4E7EC"/>
<path d="M13.3623 56.3418L13.5642 56.4586V63.6355L13.3623 63.5224V56.3418Z" fill="#E4E7EC"/>
<path d="M11.5635 55.3164L11.7653 55.4332V62.6102L11.5635 62.497V55.3164Z" fill="#E4E7EC"/>
<path d="M10.2761 54.6074L10.4743 54.7242V61.9012L10.2725 61.7844L10.2761 54.6074Z" fill="#E4E7EC"/>
<path d="M8.52539 53.5488L8.72358 53.6656V60.8426L8.52539 60.7294V53.5488Z" fill="#E4E7EC"/>
<path d="M19.0183 59.5801L19.4147 59.8101V66.9906L19.0146 66.7607L19.0183 59.5801Z" fill="#E4E7EC"/>
<path d="M124.841 63.9162L127.601 62.3209C127.693 62.2541 127.801 62.2131 127.915 62.2022C128.029 62.1912 128.143 62.2108 128.246 62.2588C128.408 62.3537 128.735 62.5509 128.896 62.6239C128.99 62.6887 129.065 62.7774 129.113 62.8808C129.161 62.9842 129.179 63.0984 129.168 63.2116V69.8045C129.151 70.1178 129.059 70.4228 128.901 70.6943C128.743 70.9658 128.522 71.1963 128.258 71.3669L125.501 72.9804C125.41 73.0468 125.302 73.0878 125.189 73.0994C125.076 73.1109 124.962 73.0925 124.859 73.0461C124.694 72.9512 124.367 72.7504 124.202 72.6592C124.109 72.5937 124.035 72.5047 123.988 72.4014C123.941 72.2981 123.922 72.1842 123.934 72.0714V65.4786C123.951 65.1655 124.042 64.8608 124.199 64.5893C124.357 64.3178 124.576 64.0871 124.841 63.9162Z" fill="#FAFAFA"/>
<path d="M123.93 65.4789V72.0717C123.918 72.1846 123.937 72.2986 123.984 72.402C124.031 72.5053 124.105 72.5942 124.198 72.6595C124.36 72.7471 124.606 72.904 124.837 73.0245C124.751 72.9569 124.684 72.8691 124.641 72.769C124.598 72.6689 124.581 72.5597 124.591 72.4514V65.8658C124.601 65.5525 124.692 65.247 124.855 64.9788L124.198 64.5918C124.034 64.8597 123.942 65.1652 123.93 65.4789Z" fill="#E0E0E0"/>
<path d="M128.257 71.3848L125.501 72.9801C124.998 73.2685 124.595 73.0349 124.595 72.4617V65.8652C124.612 65.5523 124.703 65.2477 124.86 64.9762C125.018 64.7047 125.237 64.474 125.501 64.3028L128.261 62.7075C128.764 62.4191 129.171 62.6528 129.171 63.2296V69.8224C129.154 70.1361 129.062 70.4412 128.903 70.7128C128.744 70.9844 128.523 71.2147 128.257 71.3848Z" fill="#F0F0F0"/>
<path d="M124.679 76.8643C124.639 76.8634 124.599 76.8522 124.565 76.8317C124.53 76.8112 124.501 76.7822 124.481 76.7475C124.466 76.7216 124.456 76.693 124.452 76.6634C124.448 76.6338 124.45 76.6037 124.458 76.5748C124.466 76.546 124.479 76.519 124.498 76.4953C124.516 76.4717 124.539 76.4519 124.565 76.4372L126.488 75.342C126.523 75.3221 126.552 75.2933 126.572 75.2587C126.592 75.2241 126.602 75.1848 126.602 75.1449V67.9132C126.598 67.8808 126.601 67.8479 126.611 67.8167C126.62 67.7855 126.636 67.7567 126.658 67.7322C126.68 67.7077 126.707 67.6881 126.736 67.6747C126.766 67.6612 126.799 67.6543 126.832 67.6543C126.864 67.6543 126.897 67.6612 126.927 67.6747C126.957 67.6881 126.983 67.7077 127.005 67.7322C127.027 67.7567 127.043 67.7855 127.053 67.8167C127.062 67.8479 127.065 67.8808 127.061 67.9132V75.1339C127.061 75.2544 127.029 75.3728 126.968 75.4772C126.908 75.5816 126.821 75.6684 126.716 75.729L124.793 76.8241C124.76 76.848 124.72 76.8619 124.679 76.8643Z" fill="#263238"/>
<path d="M67.4554 114.246L75.2544 110.661C75.2544 110.661 74.6452 103.36 69.496 105.108C64.3469 106.857 67.4554 114.246 67.4554 114.246Z" fill="#5F90FF"/>
<g opacity="0.5">
<path d="M67.4554 114.246L75.2544 110.661C75.2544 110.661 74.6452 103.36 69.496 105.108C64.3469 106.857 67.4554 114.246 67.4554 114.246Z" fill="black"/>
</g>
<path d="M71.7456 113.334L70.083 110.019L74.0761 107.72C75.3496 106.99 77.0379 107.077 78.8949 108.143C82.8403 110.41 86.0369 116.251 86.0369 121.194C86.0369 123.778 85.1598 125.607 83.7578 126.436L83.6991 126.469L79.6069 128.82L77.8343 125.322C74.4614 122.774 71.874 117.744 71.7456 113.334Z" fill="#263238"/>
<path d="M67.5801 115.374C67.5801 119.634 69.9583 124.566 73.144 127.293C73.6316 127.713 74.156 128.088 74.7111 128.414C78.6564 130.677 81.8568 128.509 81.8531 123.566C81.8531 119.835 80.0181 115.582 77.449 112.753L77.427 112.731C76.6464 111.86 75.7353 111.114 74.7258 110.519C70.7767 108.267 67.5801 110.435 67.5801 115.374Z" fill="#37474F"/>
<path d="M74.7213 113.513C72.211 112.053 70.1777 113.571 70.1777 116.868C70.1777 120.164 72.211 124.001 74.7213 125.443C77.2317 126.885 79.2649 125.381 79.2649 122.088C79.2649 118.795 77.2317 114.955 74.7213 113.513Z" fill="#455A64"/>
<path d="M74.7214 116.382C73.4186 115.652 72.3652 116.412 72.3652 118.124C72.3652 119.836 73.4186 121.825 74.7214 122.574C76.0243 123.322 77.0813 122.541 77.0813 120.832C77.0813 119.124 76.0243 117.131 74.7214 116.382Z" fill="#E0E0E0"/>
<path d="M73.9691 116.349C73.8073 116.256 73.6331 116.185 73.4516 116.141C72.7983 116.316 72.3506 117.028 72.3506 118.123C72.3922 119.414 72.8561 120.656 73.6718 121.66C73.7625 121.728 73.8569 121.792 73.9544 121.85C75.1142 122.514 76.0501 121.824 76.0501 120.302C76.0501 118.78 75.1289 117.013 73.9691 116.349Z" fill="#F5F5F5"/>
<path d="M67.5801 115.374C67.5801 119.634 69.9583 124.566 73.144 127.293C70.9341 124.803 69.3782 121.808 68.615 118.575C68.0095 115.728 68.248 111.639 70.696 110.606C73.144 109.573 76.3993 111.749 77.4233 112.742C76.6427 111.871 75.7316 111.124 74.7221 110.53C70.7767 108.266 67.5801 110.435 67.5801 115.374Z" fill="#455A64"/>
<path d="M95.1567 130.144L88.0918 126.085L87.1632 125.552L85.3832 124.522L84.5391 124.033C84.5692 123.954 84.5817 123.869 84.5758 123.785C84.6049 123.657 84.6161 123.525 84.6088 123.394C84.6088 117.959 80.7736 111.348 76.0171 108.632C75.5708 108.374 75.1058 108.149 74.6261 107.96C74.417 107.88 74.2188 107.81 74.0206 107.752C70.2624 106.62 67.4621 108.891 67.4621 113.542V114.246L55.7178 107.496V54.2461L70.3138 62.6423L83.0564 71.9767L88.8331 99.9214L93.3143 106.47L93.5529 106.817L96.2908 110.811L97.1789 121.679L97.3991 124.055L97.4946 125.033L97.7148 127.384L97.8175 128.479C97.845 128.801 97.7829 129.124 97.6381 129.413C97.4933 129.702 97.2714 129.946 96.9967 130.118C96.722 130.29 96.405 130.383 96.0804 130.388C95.7559 130.392 95.4363 130.308 95.1567 130.144Z" fill="#5F90FF"/>
<g opacity="0.15">
<path d="M95.1567 130.144L88.0918 126.085L87.1632 125.552L85.3832 124.522L84.5391 124.033C84.5692 123.954 84.5817 123.869 84.5758 123.785C84.6049 123.657 84.6161 123.525 84.6088 123.394C84.6088 117.959 80.7736 111.348 76.0171 108.632C75.5708 108.374 75.1058 108.149 74.6261 107.96C74.417 107.88 74.2188 107.81 74.0206 107.752C70.2624 106.62 67.4621 108.891 67.4621 113.542V114.246L55.7178 107.496V54.2461L70.3138 62.6423L83.0564 71.9767L88.8331 99.9214L93.3143 106.47L93.5529 106.817L96.2908 110.811L97.1789 121.679L97.3991 124.055L97.4946 125.033L97.7148 127.384L97.8175 128.479C97.845 128.801 97.7829 129.124 97.6381 129.413C97.4933 129.702 97.2714 129.946 96.9967 130.118C96.722 130.29 96.405 130.383 96.0804 130.388C95.7559 130.392 95.4363 130.308 95.1567 130.144Z" fill="black"/>
</g>
<path d="M76.0286 72.838V90.0648C76.0286 90.7 75.5845 90.9555 75.0339 90.6379L60.6692 82.3987C60.3784 82.2106 60.1364 81.9568 59.9629 81.658C59.7894 81.3592 59.6894 81.0238 59.6709 80.6793V62.5471C59.6709 61.9156 60.115 61.6601 60.6692 61.974L69.3049 66.9351C69.8554 67.2527 70.7179 67.8112 71.2281 68.1872L75.1 71.0164C75.3734 71.2393 75.5971 71.5164 75.757 71.83C75.9169 72.1436 76.0093 72.4869 76.0286 72.838Z" fill="#455A64"/>
<path d="M80.645 93.8477C80.161 93.5343 79.7583 93.1119 79.4694 92.6146C79.1805 92.1173 79.0137 91.5592 78.9824 90.9857V75.752C78.9824 74.697 79.3751 74.1349 79.8596 74.4963L80.7367 75.1497C81.3896 75.6925 81.8523 76.4275 82.058 77.2487L85.5959 95.5379C85.7391 96.268 85.3354 96.5418 84.7004 96.1731L80.645 93.8477Z" fill="#455A64"/>
<g opacity="0.15">
<path d="M76.7589 70.195L70.9565 65.9896C70.5234 65.6757 69.7931 65.2011 69.3307 64.9383L59.036 59.0354C58.9239 58.9562 58.7922 58.9089 58.6551 58.8986C58.518 58.8883 58.3807 58.9154 58.258 58.977C58.1433 59.0528 58.0512 59.1578 57.9911 59.2811C57.9311 59.4044 57.9054 59.5414 57.9166 59.6779V106.127C57.9318 106.448 58.024 106.761 58.1855 107.039C58.3471 107.317 58.5733 107.553 58.8452 107.726L65.6018 111.603C65.7427 111.691 65.9052 111.739 66.0716 111.742C66.1729 111.743 66.2733 111.722 66.3652 111.68C66.4894 111.622 66.5949 111.531 66.6698 111.417C66.7519 111.293 66.8069 111.154 66.8313 111.008C67.0735 109.781 67.8222 107.584 70.1344 106.66C71.3467 106.217 72.671 106.179 73.9073 106.551C74.5582 106.722 75.1902 106.958 75.7937 107.255C76.058 107.383 76.3002 107.511 76.5277 107.62C76.6391 107.7 76.77 107.749 76.9068 107.762C77.0436 107.775 77.1813 107.751 77.3058 107.693C77.382 107.647 77.4462 107.583 77.493 107.507C77.584 107.358 77.6287 107.185 77.6214 107.011V71.867C77.605 71.5434 77.5196 71.227 77.3709 70.9387C77.2223 70.6505 77.0136 70.397 76.7589 70.195ZM77.0342 107.387C76.9436 107.398 76.852 107.378 76.7736 107.332L76.7112 107.303C75.7328 106.732 74.6702 106.318 73.5623 106.076C72.3768 105.799 71.1354 105.878 69.9949 106.302C67.7709 107.193 66.901 109.157 66.5634 110.493C66.5194 110.65 66.4863 110.789 66.4606 110.928C66.453 111.009 66.4261 111.088 66.3821 111.157C66.338 111.226 66.2782 111.284 66.2074 111.325C66.1389 111.349 66.0658 111.356 65.9942 111.345C65.9226 111.334 65.8547 111.306 65.7963 111.263L59.036 107.39C58.8234 107.25 58.6465 107.063 58.5191 106.843C58.3918 106.623 58.3174 106.377 58.302 106.123V59.6706C58.2946 59.6024 58.3042 59.5335 58.3298 59.4699C58.3554 59.4063 58.3962 59.3498 58.4488 59.3055C58.4871 59.2851 58.5301 59.2751 58.5736 59.2763C58.6702 59.2816 58.7638 59.3118 58.8452 59.3639L69.1398 65.2778C69.5949 65.537 70.3069 66.0079 70.729 66.3036L76.5351 70.5126C76.7391 70.6797 76.9064 70.8869 77.0264 71.1212C77.1463 71.3554 77.2165 71.6118 77.2324 71.8743V107.025C77.2437 107.092 77.2382 107.16 77.2164 107.223C77.1947 107.287 77.1573 107.344 77.1076 107.39C77.0881 107.4 77.067 107.406 77.0452 107.408L77.0342 107.387Z" fill="black"/>
</g>
<path d="M134.747 106.079C134.747 106.079 129.422 113.402 117.806 120.316C108.164 126.047 97.6568 127.387 97.6568 127.387L96.2842 110.806L133.374 89.502L134.747 106.079Z" fill="#5F90FF"/>
<g opacity="0.3">
<path d="M134.747 106.079C134.747 106.079 129.422 113.402 117.806 120.316C108.164 126.047 97.6568 127.387 97.6568 127.387L96.2842 110.806L133.374 89.502L134.747 106.079Z" fill="black"/>
</g>
<path d="M133.373 89.496C133.373 89.496 128.048 96.8226 116.432 103.733C106.791 109.464 96.2833 110.804 96.2833 110.804L88.8477 99.9219L125.945 78.6211L133.373 89.496Z" fill="#5F90FF"/>
<path d="M135.41 103.638C135.344 103.568 135.286 103.579 135.216 103.696C135.216 103.696 129.891 111.019 118.271 117.933C108.619 123.65 98.1185 125 98.1185 125C93.6116 125.409 88.0918 120.675 88.0918 120.675L88.8515 120.123C88.8515 120.123 94.0851 124.066 96.7459 124.066C99.0397 124.066 107.239 123.029 118.363 116.765C129.487 110.501 134.511 102.926 134.511 102.926C134.71 102.957 134.897 103.039 135.055 103.164C135.213 103.289 135.335 103.452 135.41 103.638Z" fill="#37474F"/>
<path d="M135.212 103.695C135.212 103.695 129.883 111.018 118.267 117.932C108.63 123.664 98.1185 125.004 98.1185 125.004C93.6116 125.412 88.0918 120.685 88.0918 120.685V127.008C88.0918 127.008 93.597 131.753 98.1185 131.33C98.1185 131.33 108.63 129.987 118.267 124.259C129.883 117.352 135.212 110.022 135.212 110.022C136.144 108.456 135.748 102.757 135.212 103.695Z" fill="#455A64"/>
<path d="M101.195 114.119C102.853 113.728 104.354 114.849 104.545 116.612C104.631 117.478 104.404 118.346 103.906 119.061C103.408 119.777 102.671 120.293 101.826 120.518C101.437 120.615 101.032 120.625 100.639 120.546C100.246 120.467 99.8762 120.303 99.5556 120.064C99.235 119.825 98.9719 119.518 98.7856 119.165C98.5993 118.813 98.4944 118.423 98.4786 118.025C98.3208 116.258 99.5356 114.524 101.195 114.119Z" fill="white"/>
<path d="M130.709 97.314C129.7 98.3143 129.054 100.457 129.263 102.104C129.472 103.75 130.419 104.268 131.373 103.261C132.328 102.253 132.973 100.11 132.819 98.4712C132.665 96.8322 131.715 96.3138 130.709 97.314Z" fill="white"/>
<path d="M107.382 111.968C110.589 110.964 113.669 109.592 116.557 107.88C117.016 107.613 117.383 107.821 117.383 108.347V109.015C117.37 109.303 117.288 109.584 117.145 109.835C117.001 110.085 116.8 110.299 116.557 110.457C113.669 112.169 110.589 113.541 107.382 114.546C107.274 114.586 107.157 114.598 107.043 114.582C106.929 114.565 106.82 114.52 106.728 114.451C106.636 114.382 106.563 114.291 106.515 114.186C106.468 114.081 106.448 113.966 106.457 113.852V113.184C106.469 112.912 106.564 112.65 106.729 112.432C106.894 112.215 107.122 112.053 107.382 111.968Z" fill="#37474F"/>
<path d="M127.337 101.112V101.78C127.305 102.379 127.042 102.942 126.603 103.353C124.408 105.181 122.113 106.887 119.729 108.464C119.288 108.752 118.925 108.555 118.925 108.029V107.369C118.944 107.082 119.026 106.803 119.165 106.551C119.304 106.298 119.496 106.079 119.729 105.908C122.112 104.331 124.407 102.625 126.603 100.798C127.021 100.436 127.337 100.586 127.337 101.112Z" fill="#37474F"/>
<path d="M107.382 116.633C110.589 115.63 113.668 114.259 116.557 112.548C117.016 112.282 117.383 112.486 117.383 113.016V113.684C117.368 113.971 117.285 114.252 117.142 114.502C116.998 114.752 116.798 114.966 116.557 115.126C113.667 116.835 110.588 118.206 107.382 119.21C107.273 119.252 107.157 119.265 107.042 119.249C106.927 119.233 106.818 119.188 106.726 119.119C106.633 119.049 106.56 118.958 106.513 118.852C106.466 118.747 106.447 118.632 106.457 118.517V117.849C106.47 117.577 106.565 117.316 106.73 117.099C106.895 116.882 107.122 116.72 107.382 116.633Z" fill="#37474F"/>
<path d="M127.337 105.795V106.463C127.304 107.06 127.041 107.623 126.603 108.032C124.408 109.861 122.113 111.567 119.729 113.143C119.288 113.435 118.925 113.238 118.925 112.709V112.041C118.944 111.754 119.026 111.475 119.165 111.223C119.304 110.97 119.496 110.751 119.729 110.581C122.11 109.001 124.405 107.295 126.603 105.47C127.021 105.116 127.337 105.265 127.337 105.795Z" fill="#37474F"/>
<g opacity="0.15">
<path d="M108.762 93.1898C103.829 95.8425 98.7207 98.1598 93.4725 100.126C93.3622 100.161 93.262 100.222 93.18 100.304C93.0979 100.386 93.0365 100.485 93.0007 100.595C92.9649 100.705 92.9557 100.821 92.974 100.935C92.9922 101.049 93.0373 101.157 93.1055 101.25L93.1312 101.287C93.2965 101.512 93.5208 101.688 93.7796 101.796C94.0384 101.903 94.3219 101.938 94.5993 101.896C96.8527 101.407 102.945 99.8302 110.517 95.7817C110.625 95.7259 110.72 95.6475 110.795 95.5519C110.871 95.4563 110.924 95.3457 110.953 95.2277C110.981 95.1096 110.984 94.9868 110.961 94.8676C110.937 94.7484 110.888 94.6356 110.817 94.5369L110.131 93.522C109.982 93.3114 109.761 93.1618 109.509 93.1007C109.258 93.0396 108.992 93.0713 108.762 93.1898Z" fill="black"/>
</g>
<g opacity="0.15">
<path d="M124.603 82.2666C120.663 85.6416 116.442 88.6776 111.985 91.3418C111.878 91.4035 111.785 91.4866 111.712 91.5859C111.639 91.6853 111.587 91.7986 111.561 91.9188C111.534 92.0389 111.533 92.1633 111.557 92.2839C111.582 92.4045 111.631 92.5188 111.702 92.6195L112.396 93.6416C112.544 93.8529 112.767 94.0012 113.019 94.0573C113.272 94.1134 113.537 94.0732 113.761 93.9446C120.624 89.8305 124.294 86.2092 125.975 84.2379C126.142 84.0198 126.239 83.7561 126.251 83.4821C126.264 83.2081 126.192 82.9369 126.045 82.7046L125.858 82.4272C125.794 82.3251 125.707 82.2385 125.606 82.1736C125.504 82.1086 125.388 82.0669 125.268 82.0516C125.148 82.0362 125.026 82.0475 124.911 82.0847C124.796 82.1219 124.691 82.184 124.603 82.2666Z" fill="black"/>
</g>
<path d="M125.945 78.6022C125.945 78.6022 119.816 84.7314 109.716 90.5796C99.6159 96.4277 88.8515 99.8993 88.8515 99.8993L83.0527 71.9473L106.233 58.6411L116.895 52.5229L120.146 50.6465L125.945 78.6022Z" fill="#455A64"/>
<path d="M120.146 50.6387L116.895 52.5114L106.233 58.6406L83.0527 71.9468L88.8515 99.8988L89.2479 99.7674L89.3286 99.7419L89.7323 99.6031L89.9011 99.5557H89.9379H89.9746L90.2498 99.4571L90.6792 99.3075L91.1049 99.1541L91.3839 99.0519L91.7509 98.9168L92.9914 98.4496L93.2703 98.3437C94.2649 97.9604 95.3916 97.515 96.6138 97.0076L97.8176 96.5002L98.0121 96.4162L98.2323 96.325C98.4855 96.2082 98.7498 96.0986 99.014 95.9818L99.2416 95.8833L99.7701 95.646L100.376 95.3758C100.816 95.1787 101.264 94.9706 101.715 94.7589C102.167 94.5472 102.622 94.3318 103.08 94.1128C103.425 93.9448 103.77 93.7769 104.115 93.6017L104.952 93.1855L105.04 93.1417L105.895 92.7L105.965 92.6635L106.718 92.2692L107.319 91.948C107.809 91.6876 108.285 91.4248 108.747 91.1595L109.698 90.6192L110.564 90.0643C110.81 89.922 111.052 89.7723 111.298 89.6263C111.39 89.5715 111.485 89.5167 111.573 89.4583C111.848 89.2941 112.127 89.1225 112.395 88.9546L112.494 88.8925L112.887 88.6443C113.059 88.5348 113.225 88.4252 113.397 88.3194L113.885 87.9981L114.37 87.6842C114.572 87.5528 114.773 87.4214 114.968 87.2863C115.368 87.0161 115.757 86.7533 116.139 86.4868L116.216 86.432L116.656 86.1291C117.236 85.7202 117.794 85.3186 118.322 84.9317L118.719 84.636L119.086 84.3513L119.453 84.0665C119.702 83.8803 119.941 83.7015 120.187 83.5153L120.216 83.4934L120.513 83.2634L121.192 82.7231L121.622 82.3836C121.71 82.3106 121.794 82.2376 121.879 82.1719C121.963 82.1062 122.048 82.0295 122.128 81.9675L122.374 81.7667C122.374 81.7606 122.374 81.7545 122.374 81.7484L122.932 81.3031C123.618 80.7263 124.195 80.2079 124.65 79.8064C124.707 79.7476 124.768 79.6927 124.833 79.6421L124.87 79.6056L125.061 79.4303C125.6 78.9375 125.894 78.6455 125.934 78.6053L120.146 50.6387ZM107.65 89.6993C107.651 89.7065 107.651 89.714 107.65 89.7212C107.642 89.7778 107.631 89.8339 107.617 89.8891V89.9366C107.598 89.9804 107.584 90.0278 107.565 90.0716C107.558 90.0917 107.55 90.1113 107.54 90.13C107.52 90.1846 107.496 90.2372 107.466 90.287C107.369 90.4634 107.236 90.6186 107.077 90.7433C107.025 90.7849 106.969 90.8204 106.908 90.8492C105.543 91.5793 104.178 92.2875 102.846 92.9336L102.145 93.2768C101.584 93.5421 101.03 93.8 100.482 94.0507L99.7187 94.4158L98.4121 94.9925C98.1956 95.0911 97.9827 95.1824 97.7735 95.27L97.1533 95.5365C96.3312 95.9015 95.5458 96.2082 94.8044 96.5075C94.4117 96.6681 94.0263 96.8178 93.6593 96.9638L93.1198 97.1719C92.2353 97.5114 91.4573 97.8034 90.8003 98.0407C90.5881 98.1265 90.352 98.1335 90.135 98.0605C89.918 97.9874 89.7347 97.8392 89.6186 97.6428C89.5625 97.5397 89.5217 97.429 89.4974 97.3143L85.9301 79.6384C85.8786 79.3157 85.9227 78.9851 86.057 78.6869C86.1912 78.3888 86.4098 78.1359 86.6861 77.9592L101.734 69.3184C101.847 69.2416 101.978 69.1945 102.114 69.1816C102.251 69.1688 102.388 69.1905 102.514 69.2448C102.64 69.2992 102.749 69.3843 102.833 69.4923C102.917 69.6003 102.972 69.7276 102.992 69.8623L106.556 84.6616L107.635 89.1444L107.653 89.2174V89.2722C107.657 89.2927 107.657 89.3137 107.653 89.3342C107.655 89.3549 107.655 89.3756 107.653 89.3963C107.657 89.44 107.657 89.484 107.653 89.5277C107.657 89.5849 107.656 89.6423 107.65 89.6993ZM120.906 81.4929L120.642 81.7156C119.765 82.4201 118.767 83.1758 117.669 84.0045C117.302 84.2819 116.909 84.5593 116.509 84.8441L116.08 85.1544C115.496 85.5705 114.891 85.9867 114.245 86.4138L113.621 86.83C113.412 86.9723 113.195 87.1111 112.979 87.2498C112.762 87.3885 112.542 87.5382 112.322 87.6769C111.533 88.1843 110.714 88.6917 109.87 89.1918C109.759 89.2702 109.63 89.3189 109.495 89.3332C109.359 89.3474 109.222 89.3268 109.097 89.2733C108.972 89.2197 108.863 89.1351 108.781 89.0275C108.698 88.9199 108.645 88.7929 108.626 88.6589L108.6 88.5494L107.518 84.0811L103.987 69.3184C103.925 68.997 103.962 68.6645 104.093 68.3643C104.224 68.0641 104.443 67.8102 104.721 67.6355L107.573 66.0037L119.181 59.3233L119.699 59.0312L119.743 59.0093C119.853 58.9414 119.98 58.9025 120.11 58.8961C120.24 58.8898 120.369 58.9163 120.486 58.9731C120.603 59.03 120.703 59.1153 120.778 59.2213C120.853 59.3272 120.899 59.4502 120.914 59.5788L124.463 77.1013C124.544 77.6403 124.422 78.19 124.121 78.6455C124.081 78.7075 124.037 78.7696 123.993 78.8244C123.949 78.8745 123.903 78.922 123.853 78.9667L123.666 79.1347C123.582 79.215 123.494 79.2916 123.406 79.3683L122.613 80.0546C122.33 80.2992 122.018 80.562 121.688 80.8358L120.994 81.4053L120.91 81.471L120.906 81.4929Z" fill="#5F90FF"/>
<g opacity="0.3">
<path d="M120.146 50.6387L116.895 52.5114L106.233 58.6406L83.0527 71.9468L88.8515 99.8988L89.2479 99.7674L89.3286 99.7419L89.7323 99.6031L89.9011 99.5557H89.9379H89.9746L90.2498 99.4571L90.6792 99.3075L91.1049 99.1541L91.3839 99.0519L91.7509 98.9168L92.9914 98.4496L93.2703 98.3437C94.2649 97.9604 95.3916 97.515 96.6138 97.0076L97.8176 96.5002L98.0121 96.4162L98.2323 96.325C98.4855 96.2082 98.7498 96.0986 99.014 95.9818L99.2416 95.8833L99.7701 95.646L100.376 95.3758C100.816 95.1787 101.264 94.9706 101.715 94.7589C102.167 94.5472 102.622 94.3318 103.08 94.1128C103.425 93.9448 103.77 93.7769 104.115 93.6017L104.952 93.1855L105.04 93.1417L105.895 92.7L105.965 92.6635L106.718 92.2692L107.319 91.948C107.809 91.6876 108.285 91.4248 108.747 91.1595L109.698 90.6192L110.564 90.0643C110.81 89.922 111.052 89.7723 111.298 89.6263C111.39 89.5715 111.485 89.5167 111.573 89.4583C111.848 89.2941 112.127 89.1225 112.395 88.9546L112.494 88.8925L112.887 88.6443C113.059 88.5348 113.225 88.4252 113.397 88.3194L113.885 87.9981L114.37 87.6842C114.572 87.5528 114.773 87.4214 114.968 87.2863C115.368 87.0161 115.757 86.7533 116.139 86.4868L116.216 86.432L116.656 86.1291C117.236 85.7202 117.794 85.3186 118.322 84.9317L118.719 84.636L119.086 84.3513L119.453 84.0665C119.702 83.8803 119.941 83.7015 120.187 83.5153L120.216 83.4934L120.513 83.2634L121.192 82.7231L121.622 82.3836C121.71 82.3106 121.794 82.2376 121.879 82.1719C121.963 82.1062 122.048 82.0295 122.128 81.9675L122.374 81.7667C122.374 81.7606 122.374 81.7545 122.374 81.7484L122.932 81.3031C123.618 80.7263 124.195 80.2079 124.65 79.8064C124.707 79.7476 124.768 79.6927 124.833 79.6421L124.87 79.6056L125.061 79.4303C125.6 78.9375 125.894 78.6455 125.934 78.6053L120.146 50.6387ZM107.65 89.6993C107.651 89.7065 107.651 89.714 107.65 89.7212C107.642 89.7778 107.631 89.8339 107.617 89.8891V89.9366C107.598 89.9804 107.584 90.0278 107.565 90.0716C107.558 90.0917 107.55 90.1113 107.54 90.13C107.52 90.1846 107.496 90.2372 107.466 90.287C107.369 90.4634 107.236 90.6186 107.077 90.7433C107.025 90.7849 106.969 90.8204 106.908 90.8492C105.543 91.5793 104.178 92.2875 102.846 92.9336L102.145 93.2768C101.584 93.5421 101.03 93.8 100.482 94.0507L99.7187 94.4158L98.4121 94.9925C98.1956 95.0911 97.9827 95.1824 97.7735 95.27L97.1533 95.5365C96.3312 95.9015 95.5458 96.2082 94.8044 96.5075C94.4117 96.6681 94.0263 96.8178 93.6593 96.9638L93.1198 97.1719C92.2353 97.5114 91.4573 97.8034 90.8003 98.0407C90.5881 98.1265 90.352 98.1335 90.135 98.0605C89.918 97.9874 89.7347 97.8392 89.6186 97.6428C89.5625 97.5397 89.5217 97.429 89.4974 97.3143L85.9301 79.6384C85.8786 79.3157 85.9227 78.9851 86.057 78.6869C86.1912 78.3888 86.4098 78.1359 86.6861 77.9592L101.734 69.3184C101.847 69.2416 101.978 69.1945 102.114 69.1816C102.251 69.1688 102.388 69.1905 102.514 69.2448C102.64 69.2992 102.749 69.3843 102.833 69.4923C102.917 69.6003 102.972 69.7276 102.992 69.8623L106.556 84.6616L107.635 89.1444L107.653 89.2174V89.2722C107.657 89.2927 107.657 89.3137 107.653 89.3342C107.655 89.3549 107.655 89.3756 107.653 89.3963C107.657 89.44 107.657 89.484 107.653 89.5277C107.657 89.5849 107.656 89.6423 107.65 89.6993ZM120.906 81.4929L120.642 81.7156C119.765 82.4201 118.767 83.1758 117.669 84.0045C117.302 84.2819 116.909 84.5593 116.509 84.8441L116.08 85.1544C115.496 85.5705 114.891 85.9867 114.245 86.4138L113.621 86.83C113.412 86.9723 113.195 87.1111 112.979 87.2498C112.762 87.3885 112.542 87.5382 112.322 87.6769C111.533 88.1843 110.714 88.6917 109.87 89.1918C109.759 89.2702 109.63 89.3189 109.495 89.3332C109.359 89.3474 109.222 89.3268 109.097 89.2733C108.972 89.2197 108.863 89.1351 108.781 89.0275C108.698 88.9199 108.645 88.7929 108.626 88.6589L108.6 88.5494L107.518 84.0811L103.987 69.3184C103.925 68.997 103.962 68.6645 104.093 68.3643C104.224 68.0641 104.443 67.8102 104.721 67.6355L107.573 66.0037L119.181 59.3233L119.699 59.0312L119.743 59.0093C119.853 58.9414 119.98 58.9025 120.11 58.8961C120.24 58.8898 120.369 58.9163 120.486 58.9731C120.603 59.03 120.703 59.1153 120.778 59.2213C120.853 59.3272 120.899 59.4502 120.914 59.5788L124.463 77.1013C124.544 77.6403 124.422 78.19 124.121 78.6455C124.081 78.7075 124.037 78.7696 123.993 78.8244C123.949 78.8745 123.903 78.922 123.853 78.9667L123.666 79.1347C123.582 79.215 123.494 79.2916 123.406 79.3683L122.613 80.0546C122.33 80.2992 122.018 80.562 121.688 80.8358L120.994 81.4053L120.91 81.471L120.906 81.4929Z" fill="black"/>
</g>
<path d="M86.1245 76.4696L119.592 57.2423C119.808 57.1052 119.979 56.9087 120.085 56.6767C120.19 56.4447 120.226 56.1871 120.187 55.9354L119.577 52.931C119.567 52.8274 119.529 52.7283 119.468 52.6437C119.407 52.5591 119.324 52.492 119.228 52.4492C119.133 52.4063 119.028 52.3891 118.924 52.3994C118.819 52.4096 118.72 52.4469 118.634 52.5076L85.1703 71.7349C84.9535 71.8719 84.7818 72.069 84.6762 72.3018C84.5706 72.5347 84.5356 72.7931 84.5757 73.0454L85.1813 76.0462C85.1919 76.1499 85.2298 76.2489 85.291 76.3335C85.3523 76.4181 85.4348 76.4852 85.5303 76.528C85.6258 76.5709 85.731 76.5881 85.8353 76.5778C85.9395 76.5676 86.0393 76.5303 86.1245 76.4696Z" fill="#455A64"/>
<path d="M107.628 89.204C107.692 89.5203 107.656 89.8487 107.525 90.1437C107.393 90.4387 107.173 90.6857 106.894 90.8504C101.702 93.6223 96.3179 96.0207 90.7819 98.0274C90.6487 98.0807 90.5052 98.1035 90.3619 98.0942C90.2186 98.0849 90.0793 98.0436 89.9542 97.9735C89.8291 97.9034 89.7214 97.8063 89.6392 97.6892C89.557 97.5721 89.5022 97.4382 89.479 97.2972L89.2441 96.1327C92.4959 93.7818 100.394 88.1709 106.457 84.6883C106.481 84.6724 106.505 84.6578 106.53 84.6445L107.628 89.204Z" fill="#37474F"/>
<path d="M124.137 78.658C124.06 78.7812 123.966 78.893 123.858 78.9902C119.527 82.8232 114.846 86.2453 109.874 89.2116C109.764 89.29 109.634 89.3387 109.499 89.353C109.364 89.3672 109.227 89.3466 109.102 89.293C108.977 89.2395 108.868 89.1548 108.785 89.0472C108.703 88.9396 108.649 88.8127 108.63 88.6786L107.529 84.0899C112.253 81.4987 117.169 79.2715 122.235 77.4277L124.137 78.658Z" fill="#37474F"/>
<path opacity="0.1" d="M121.802 74.8637L117.747 72.542C117.262 72.2283 116.859 71.8053 116.57 71.3073C116.281 70.8093 116.115 70.2505 116.084 69.6763V61.1159L119.193 59.3271L119.706 59.0314C119.721 59.0208 119.737 59.0122 119.754 59.0059L122.69 74.2249C122.841 74.944 122.437 75.2288 121.802 74.8637Z" fill="white"/>
<path opacity="0.1" d="M113.129 62.8145V68.7429C113.129 69.3781 112.685 69.6336 112.131 69.316L106.975 66.3555L107.588 65.9904L113.129 62.8145Z" fill="white"/>
<path d="M120.147 50.643L83.053 71.9438L70.303 62.6241L55.707 54.2425L92.8008 32.9453L107.397 41.3269L120.147 50.643Z" fill="#5F90FF"/>
<path d="M79.2578 89.719L82.0214 88.1237C82.113 88.0569 82.2209 88.0158 82.334 88.0049C82.447 87.994 82.5609 88.0136 82.6637 88.0617L83.317 88.4486C83.4103 88.513 83.4845 88.6012 83.5317 88.704C83.5788 88.8068 83.5972 88.9204 83.5849 89.0327V95.6256C83.5682 95.9386 83.4774 96.2433 83.3199 96.5148C83.1624 96.7864 82.9425 97.017 82.6784 97.188L79.9148 98.7833C79.8234 98.8503 79.7156 98.8918 79.6027 98.9034C79.4897 98.9149 79.3757 98.8961 79.2725 98.849C79.111 98.754 78.7807 98.5533 78.6192 98.462C78.5259 98.3968 78.4518 98.3079 78.4047 98.2045C78.3575 98.1011 78.3391 97.9871 78.3513 97.8743V91.2814C78.3683 90.9684 78.4592 90.6638 78.6167 90.3924C78.7742 90.1209 78.9939 89.8902 79.2578 89.719Z" fill="#FAFAFA"/>
<path d="M78.3404 91.2807V97.8772C78.3285 97.9895 78.3471 98.1029 78.3942 98.2056C78.4413 98.3083 78.5153 98.3966 78.6083 98.4613C78.7662 98.5489 79.0157 98.7058 79.2433 98.8263C79.1575 98.7587 79.0902 98.6709 79.0472 98.5708C79.0043 98.4707 78.9871 98.3615 78.9974 98.2532V91.6676C79.0096 91.3597 79.0991 91.0597 79.2579 90.7952L78.5973 90.4082C78.4402 90.6733 78.352 90.9731 78.3404 91.2807Z" fill="#E0E0E0"/>
<path d="M82.6672 97.1879L79.9036 98.7832C79.4045 99.0716 78.9971 98.838 78.9971 98.2648V91.672C79.0143 91.3586 79.1053 91.0536 79.2628 90.7816C79.4203 90.5095 79.6397 90.2781 79.9036 90.1059L82.6672 88.5106C83.1663 88.2259 83.5737 88.4559 83.5737 89.0327V95.6255C83.557 95.9386 83.4662 96.2433 83.3087 96.5148C83.1512 96.7863 82.9313 97.017 82.6672 97.1879Z" fill="#F0F0F0"/>
<path d="M85.1307 98.2827C85.4015 98.459 85.6267 98.6963 85.788 98.9753C85.9493 99.2544 86.0423 99.5674 86.0592 99.8889C86.0592 100.48 85.6445 100.721 85.1307 100.426C84.8595 100.25 84.634 100.012 84.4726 99.7333C84.3112 99.4541 84.2185 99.1409 84.2021 98.8193C84.2021 98.2279 84.6169 97.987 85.1307 98.2827Z" fill="#37474F"/>
<path d="M81.8639 101.381C81.7426 101.38 81.6237 101.347 81.5189 101.286C81.4141 101.227 81.3272 101.141 81.2672 101.037C81.2072 100.933 81.1763 100.815 81.1776 100.695V94.0069C81.1735 93.9746 81.1763 93.9417 81.186 93.9105C81.1956 93.8793 81.2118 93.8505 81.2335 93.826C81.2552 93.8015 81.2819 93.7819 81.3118 93.7684C81.3417 93.755 81.3742 93.748 81.407 93.748C81.4398 93.748 81.4723 93.755 81.5022 93.7684C81.5321 93.7819 81.5588 93.8015 81.5805 93.826C81.6022 93.8505 81.6184 93.8793 81.628 93.9105C81.6377 93.9417 81.6405 93.9746 81.6364 94.0069V100.702C81.635 100.742 81.6449 100.782 81.665 100.817C81.6851 100.852 81.7146 100.88 81.7502 100.899C81.7845 100.92 81.8238 100.931 81.8639 100.931C81.904 100.931 81.9434 100.92 81.9777 100.899L85.0165 99.1542C85.0425 99.1392 85.0713 99.1295 85.101 99.1256C85.1308 99.1217 85.1611 99.1237 85.1901 99.1315C85.2191 99.1393 85.2463 99.1528 85.27 99.1711C85.2938 99.1894 85.3137 99.2122 85.3285 99.2381C85.3581 99.2911 85.3659 99.3535 85.3502 99.4121C85.3344 99.4707 85.2964 99.5209 85.2441 99.5521L82.1942 101.293C82.0931 101.349 81.9796 101.379 81.8639 101.381Z" fill="#263238"/>
</g>
</svg>
